<svg id="Layer_1" data-name="Layer 1" xmlns="http://www.w3.org/2000/svg" viewBox="0 0 71 71"><defs><style>.cls-1{fill:#fff;}</style></defs><title>SDGtest</title><path class="cls-1" d="M23.7,6.28H24a.43.43,0,0,1,.49.49v.88a.43.43,0,0,1-.49.49H23.7Zm0,2.41.92,2.73h1l-.94-2.7c.56-.14.78-.51.78-1.16V6.8c0-.83-.36-1.33-1.35-1.33H22.72v6h1Z"/><polygon class="cls-1" points="28.44 10.61 27.09 10.61 27.09 8.8 28.06 8.8 28.06 7.99 27.09 7.99 27.09 6.28 28.44 6.28 28.44 5.46 26.11 5.46 26.11 11.42 28.44 11.42 28.44 10.61"/><path class="cls-1" d="M31,10c0,.36-.15.61-.56.61H30V6.28h.41c.41,0,.56.25.56.6Zm-.44-4.53H29.05v6h1.51c1.05,0,1.42-.68,1.42-1.6V7.06c0-.92-.37-1.59-1.42-1.59"/><path class="cls-1" d="M33.6,5.47h-1V10a1.33,1.33,0,0,0,1.46,1.52c1,0,1.38-.6,1.38-1.52V5.47h-.9v4.6c0,.35-.14.59-.48.59s-.48-.24-.48-.59Z"/><path class="cls-1" d="M36.1,7V9.88c0,.93.43,1.61,1.46,1.61s1.38-.63,1.38-1.48V9h-.89v1.1c0,.35-.12.58-.47.58s-.5-.26-.5-.62V6.85c0-.37.15-.62.5-.62s.47.21.47.58v.78h.89v-.7c0-.88-.3-1.49-1.38-1.49S36.1,6.07,36.1,7"/><polygon class="cls-1" points="39.56 11.42 41.89 11.42 41.89 10.6 40.54 10.6 40.54 8.79 41.51 8.79 41.51 7.99 40.54 7.99 40.54 6.28 41.89 6.28 41.89 5.46 39.56 5.46 39.56 11.42"/><path class="cls-1" d="M44.45,6.88V10c0,.36-.15.6-.56.6h-.41V6.28h.41c.41,0,.56.25.56.6m-2-1.41v6H44c1.05,0,1.42-.68,1.42-1.6V7.06c0-.92-.37-1.59-1.42-1.59Z"/><rect class="cls-1" x="22.72" y="13.99" width="0.98" height="5.96"/><polygon class="cls-1" points="27.17 13.99 26.35 13.99 26.35 17.4 25.3 13.99 24.33 13.99 24.33 19.94 25.16 19.94 25.16 16.2 26.31 19.94 27.17 19.94 27.17 13.99"/><polygon class="cls-1" points="30.05 14.8 30.05 13.99 27.71 13.99 27.71 19.94 30.05 19.94 30.05 19.13 28.69 19.13 28.69 17.32 29.66 17.32 29.66 16.51 28.69 16.51 28.69 14.8 30.05 14.8"/><path class="cls-1" d="M32.39,18.62c0,.35-.16.61-.51.61s-.5-.26-.5-.61V15.37c0-.36.16-.62.5-.62s.51.26.51.62Zm-.51-4.7c-1,0-1.47.67-1.47,1.6v2.89a1.36,1.36,0,0,0,1.11,1.53v.41l1.85.35V20l-.72-.14a1.44,1.44,0,0,0,.72-1.4V15.52a1.4,1.4,0,0,0-1.49-1.6"/><path class="cls-1" d="M33.91,14v4.5A1.33,1.33,0,0,0,35.37,20c1,0,1.38-.59,1.38-1.52V14h-.9v4.6c0,.35-.13.59-.48.59s-.48-.24-.48-.59V14Z"/><path class="cls-1" d="M38.3,18.05l.38-2.38h0l.39,2.38ZM38.17,14l-1.1,6H38l.17-1.09h1l.18,1.09h1l-1.11-6Z"/><polygon class="cls-1" points="40.78 13.99 40.78 19.94 42.93 19.94 42.93 19.13 41.76 19.13 41.76 13.99 40.78 13.99"/><rect class="cls-1" x="43.37" y="13.99" width="0.98" height="5.96"/><polygon class="cls-1" points="46.59 19.94 46.59 14.8 47.39 14.8 47.39 13.99 44.79 13.99 44.79 14.8 45.6 14.8 45.6 19.94 46.59 19.94"/><rect class="cls-1" x="47.84" y="13.99" width="0.98" height="5.96"/><polygon class="cls-1" points="51.7 19.13 50.35 19.13 50.35 17.32 51.32 17.32 51.32 16.51 50.35 16.51 50.35 14.8 51.7 14.8 51.7 13.99 49.37 13.99 49.37 19.94 51.7 19.94 51.7 19.13"/><path class="cls-1" d="M52.09,17.86v.8A1.23,1.23,0,0,0,53.47,20a1.27,1.27,0,0,0,1.42-1.39v-.29a2,2,0,0,0-.78-1.55l-.63-.63c-.28-.28-.46-.48-.46-.81v-.12c0-.34.18-.5.46-.5s.46.17.46.51v.52h.89v-.48a1.18,1.18,0,0,0-1.36-1.35,1.23,1.23,0,0,0-1.37,1.31v.2A2.06,2.06,0,0,0,52.91,17l.58.59a1.09,1.09,0,0,1,.44.84v.23c0,.31-.14.53-.45.53S53,19,53,18.68v-.82Z"/><polygon class="cls-1" points="7.12 8.87 7.12 19.95 9.5 19.95 9.5 5.47 7.6 5.47 5.41 8.1 5.41 10.64 5.43 10.64 7.1 8.87 7.12 8.87"/><path class="cls-1" d="M13.52,16.6V8.83c0-.88.32-1.5,1.13-1.5s1.14.62,1.14,1.5V16.6c0,.87-.31,1.49-1.14,1.49s-1.13-.62-1.13-1.49m4.65-.39v-7c0-2.26-1.1-3.91-3.52-3.91S11.15,7,11.15,9.21v7c0,2.25,1.1,3.91,3.5,3.91s3.52-1.66,3.52-3.91"/><path class="cls-1" d="M42.08,46.47H28.94a.16.16,0,0,0-.14.16v3.95a.16.16,0,0,0,.14.16H42.08a.15.15,0,0,0,.14-.16V46.63a.15.15,0,0,0-.14-.16"/><path class="cls-1" d="M42.08,38.07H28.94a.16.16,0,0,0-.14.16v4a.16.16,0,0,0,.14.16H42.08a.15.15,0,0,0,.14-.16v-4a.15.15,0,0,0-.14-.16"/><path class="cls-1" d="M41.89,32.11l-6.3-6.31a.11.11,0,0,0-.15,0l-6.31,6.31a.11.11,0,0,0,.08.18H41.82a.1.1,0,0,0,.07-.18"/><path class="cls-1" d="M47.81,50.79l6.31-6.31a.11.11,0,0,0,0-.15L47.81,38a.1.1,0,0,0-.18.08V50.71a.1.1,0,0,0,.18.08"/><path class="cls-1" d="M29.13,56.71l6.3,6.3a.12.12,0,0,0,.16,0l6.3-6.3a.11.11,0,0,0-.07-.19H29.21a.11.11,0,0,0-.08.19"/><path class="cls-1" d="M23.21,38l-6.3,6.31a.09.09,0,0,0,0,.15l6.3,6.31a.11.11,0,0,0,.19-.08V38.1a.11.11,0,0,0-.19-.08"/></svg>