<svg id="Layer_1" data-name="Layer 1" xmlns="http://www.w3.org/2000/svg" viewBox="0 0 71 71"><defs><style>.cls-1{fill:#fff;}.cls-2{fill:none;stroke:#fff;stroke-miterlimit:10;stroke-width:0.45px;}</style></defs><title>SDGtest</title><path class="cls-1" d="M53.77,36.7a11.65,11.65,0,0,0-8.85-2.17l-.18,0c-1.77.41-4.57,1.11-7.85,5.18l-.06.07,0,0a.28.28,0,0,0,0,.16.31.31,0,0,0,0,.13l.08.13c.41.69.93,1.57,1.37,2.39v0a.28.28,0,0,0,.25.15.28.28,0,0,0,.2-.08l.06-.08c2.91-4,5.2-4.59,6.75-5l.18,0a8.47,8.47,0,0,1,6.07,1.57c1.73,1.36,2.6,3.52,2.6,6.43,0,4.88-2.37,6.78-4.36,7.52a8.08,8.08,0,0,1-6.07-.4l-.13-.06c-1.69-.73-4.22-2.26-6.6-7-4.8-9.64-8.82-10.55-11.48-11.16l-.14,0a11.48,11.48,0,0,0-8.72,2.17c-1.72,1.38-3.78,4.06-3.78,9a10.62,10.62,0,0,0,2.2,7.08A10.74,10.74,0,0,0,26,56.48a10.28,10.28,0,0,0,4.23-2l1.52,1.36a.25.25,0,0,0,.35,0,.27.27,0,0,0,.06-.17v0L33.29,49v-.08a.27.27,0,0,0-.08-.18.27.27,0,0,0-.16-.06h-.12l-6.43,1.8-.12,0a.2.2,0,0,0-.12.08.22.22,0,0,0,0,.34l.07.07,1.44,1.31a6.7,6.7,0,0,1-2.36,1,7.53,7.53,0,0,1-7.52-2.43l0-.05a7.39,7.39,0,0,1-1.54-5.11c0-2.92.85-5.08,2.55-6.44a8.25,8.25,0,0,1,5.95-1.53l.15,0c2.18.49,5.16,1.17,9.27,9.42,2.14,4.29,4.81,7.1,8.18,8.57a11.79,11.79,0,0,0,5.12,1.19,10.28,10.28,0,0,0,3.57-.63c2-.73,6.49-3.22,6.49-10.59,0-4.93-2.09-7.61-3.84-9"/><path class="cls-2" d="M53.68,36.79a11.68,11.68,0,0,0-8.81-2.16l-.18,0c-1.75.42-4.54,1.1-7.81,5.13l-.05.07,0,.05a.3.3,0,0,0-.05.16.2.2,0,0,0,0,.13l.07.13c.41.68.93,1.56,1.37,2.37v0a.28.28,0,0,0,.25.16.27.27,0,0,0,.19-.08l.06-.08c2.9-4,5.18-4.54,6.72-4.9l.18,0a8.46,8.46,0,0,1,6,1.55c1.72,1.34,2.59,3.49,2.59,6.37,0,4.83-2.36,6.72-4.34,7.45a8.18,8.18,0,0,1-6-.39l-.13-.07c-1.68-.73-4.2-2.24-6.57-7-4.78-9.55-8.78-10.45-11.42-11.05l-.14,0a11.49,11.49,0,0,0-8.68,2.15c-1.71,1.36-3.76,4-3.76,8.9a10.44,10.44,0,0,0,2.19,7,10.72,10.72,0,0,0,10.73,3.69,10.31,10.31,0,0,0,4.21-2l1.51,1.35a.25.25,0,0,0,.34,0,.27.27,0,0,0,.06-.17v0l1.09-6.65v-.07a.25.25,0,0,0-.08-.18.25.25,0,0,0-.16-.06h-.12l-6.4,1.79-.12,0a.21.21,0,0,0-.12.07.24.24,0,0,0,0,.34l.07.07,1.44,1.29a6.66,6.66,0,0,1-2.35,1A7.53,7.53,0,0,1,18,50.79l0,0a7.25,7.25,0,0,1-1.54-5.06c0-2.89.85-5,2.54-6.37a8.17,8.17,0,0,1,5.93-1.52l.14,0c2.17.48,5.14,1.15,9.23,9.33,2.12,4.24,4.78,7,8.13,8.49a12,12,0,0,0,5.1,1.17A10.17,10.17,0,0,0,51,56.18C53,55.46,57.5,53,57.5,45.7c0-4.88-2.08-7.54-3.82-8.91"/><polygon class="cls-1" points="7.12 9.06 7.14 9.06 7.14 20.07 9.56 20.07 9.56 5.69 7.63 5.69 5.41 8.3 5.41 10.83 5.42 10.83 7.12 9.06"/><path class="cls-1" d="M11,8.66V10.4h2.21V8.6c0-.87.43-1.13.93-1.13s.87.19.87,1.09V9.74a2.83,2.83,0,0,1-.89,2.48l-1.35,1.45C11.45,15.07,11,16,11,17.42v2.65h6.28v-2h-4v-.68a2.76,2.76,0,0,1,1-2.2l1.55-1.64A4.51,4.51,0,0,0,17.37,10V8.56c0-2.06-1-3-3.16-3S11,6.65,11,8.66"/><path class="cls-1" d="M23.93,6.51V8.38h.33a.44.44,0,0,0,.5-.5V7c0-.33-.15-.49-.5-.49Zm0,2.43V11.7h-1v-6h1.47c1,0,1.39.51,1.39,1.35V7.8c0,.65-.23,1-.81,1.16l1,2.74H24.87Z"/><polygon class="cls-1" points="26.2 5.68 28.62 5.68 28.62 6.51 27.21 6.51 27.21 8.23 28.22 8.23 28.22 9.04 27.21 9.04 27.21 10.87 28.62 10.87 28.62 11.7 26.2 11.7 26.2 5.68"/><path class="cls-1" d="M28.93,10.4V9.59h.95v.83c0,.34.14.53.49.53s.46-.21.46-.53v-.23a1.07,1.07,0,0,0-.45-.85l-.59-.6a2,2,0,0,1-.85-1.6V6.93a1.26,1.26,0,0,1,1.42-1.32c1,0,1.41.5,1.41,1.37v.49h-.92V6.94q0-.51-.48-.51a.44.44,0,0,0-.48.49v.13c0,.34.19.53.48.82L31,8.5a2,2,0,0,1,.81,1.56v.3a1.3,1.3,0,0,1-1.47,1.41,1.26,1.26,0,0,1-1.43-1.37"/><path class="cls-1" d="M33.25,6.51V8.88h.37a.44.44,0,0,0,.5-.5V7c0-.33-.15-.49-.5-.49Zm-1-.83h1.5c1,0,1.39.51,1.39,1.35V8.3c0,.84-.37,1.36-1.39,1.36h-.49v2h-1Z"/><path class="cls-1" d="M37.58,10.3V7.08c0-.37-.16-.63-.52-.63s-.52.26-.52.63V10.3c0,.37.16.62.52.62s.52-.25.52-.62m-2-.16V7.23a1.53,1.53,0,1,1,3.06,0v2.91a1.53,1.53,0,1,1-3.06,0"/><polygon class="cls-1" points="39.89 7.92 39.89 11.7 39.04 11.7 39.04 5.68 40.03 5.68 41.13 9.13 41.13 5.68 41.97 5.68 41.97 11.7 41.08 11.7 39.89 7.92"/><path class="cls-1" d="M42.37,10.4V9.59h.94v.83c0,.34.15.53.49.53s.46-.21.46-.53v-.23a1.07,1.07,0,0,0-.45-.85l-.59-.6a2,2,0,0,1-.85-1.6V6.93a1.26,1.26,0,0,1,1.42-1.32c1,0,1.41.5,1.41,1.37v.49h-.92V6.94q0-.51-.48-.51a.44.44,0,0,0-.48.49v.13c0,.34.19.53.48.82l.65.63a2,2,0,0,1,.81,1.56v.3a1.3,1.3,0,0,1-1.47,1.41,1.25,1.25,0,0,1-1.42-1.37"/><rect class="cls-1" x="45.67" y="5.68" width="1.01" height="6.01"/><path class="cls-1" d="M48.15,9v1.88h.45a.43.43,0,0,0,.49-.49v-.9c0-.32-.15-.49-.5-.49Zm0-.77h.36A.43.43,0,0,0,49,7.73V7a.43.43,0,0,0-.49-.49h-.35Zm-1-2.54h1.47c1,0,1.34.47,1.34,1.33v.61a.86.86,0,0,1-.6,1,.92.92,0,0,1,.76,1v.79c0,.86-.39,1.32-1.4,1.32H47.14Z"/><polygon class="cls-1" points="50.49 5.68 51.5 5.68 51.5 10.87 52.7 10.87 52.7 11.7 50.49 11.7 50.49 5.68"/><polygon class="cls-1" points="53.04 5.68 55.45 5.68 55.45 6.51 54.05 6.51 54.05 8.23 55.05 8.23 55.05 9.04 54.05 9.04 54.05 10.87 55.45 10.87 55.45 11.7 53.04 11.7 53.04 5.68"/><path class="cls-1" d="M22.91,18.57V15.66A1.43,1.43,0,0,1,24.42,14c1.12,0,1.43.62,1.43,1.51v.71h-.92v-.79c0-.37-.13-.58-.49-.58s-.51.25-.51.62v3.23c0,.36.15.62.51.62s.49-.23.49-.59V17.65h.92v1c0,.86-.36,1.5-1.43,1.5a1.42,1.42,0,0,1-1.51-1.62"/><path class="cls-1" d="M28.32,18.73V15.5c0-.37-.16-.62-.52-.62s-.52.25-.52.62v3.23c0,.36.17.62.52.62s.52-.26.52-.62m-2.05-.16V15.66a1.53,1.53,0,1,1,3.06,0v2.91a1.53,1.53,0,1,1-3.06,0"/><polygon class="cls-1" points="30.64 16.34 30.64 20.12 29.79 20.12 29.79 14.11 30.78 14.11 31.87 17.55 31.87 14.11 32.71 14.11 32.71 20.12 31.83 20.12 30.64 16.34"/><path class="cls-1" d="M33.11,18.82V18h.94v.82c0,.34.15.53.5.53s.46-.21.46-.53v-.23a1.07,1.07,0,0,0-.45-.85l-.6-.6a2,2,0,0,1-.84-1.6v-.2A1.26,1.26,0,0,1,34.54,14c1,0,1.41.5,1.41,1.37v.49H35v-.53c0-.34-.15-.51-.47-.51a.44.44,0,0,0-.48.5v.12c0,.34.18.53.48.82l.64.63A2,2,0,0,1,36,18.48v.3a1.3,1.3,0,0,1-1.47,1.41,1.26,1.26,0,0,1-1.43-1.37"/><path class="cls-1" d="M39.35,14.1v4.55c0,.94-.4,1.54-1.43,1.54a1.35,1.35,0,0,1-1.5-1.54V14.1h1v4.65c0,.36.14.6.49.6s.5-.24.5-.6V14.1Z"/><polygon class="cls-1" points="42.59 16.21 42.56 16.21 41.88 20.12 41.41 20.12 40.66 16.21 40.64 16.21 40.64 20.12 39.8 20.12 39.8 14.1 40.98 14.1 41.64 17.49 41.65 17.49 42.23 14.1 43.51 14.1 43.51 20.12 42.59 20.12 42.59 16.21"/><path class="cls-1" d="M45,14.93V17.3h.37a.44.44,0,0,0,.5-.5V15.42c0-.33-.15-.49-.5-.49Zm-1-.83h1.5c1,0,1.39.51,1.39,1.35v1.27c0,.84-.37,1.36-1.39,1.36H45v2H44Z"/><polygon class="cls-1" points="47.09 14.11 49.78 14.11 49.78 14.93 48.94 14.93 48.94 20.12 47.92 20.12 47.92 14.93 47.09 14.93 47.09 14.11"/><rect class="cls-1" x="50.12" y="14.1" width="1.01" height="6.01"/><path class="cls-1" d="M53.64,18.73V15.5c0-.37-.16-.62-.52-.62s-.52.25-.52.62v3.23c0,.36.16.62.52.62s.52-.26.52-.62m-2-.16V15.66a1.53,1.53,0,1,1,3.06,0v2.91a1.53,1.53,0,1,1-3.06,0"/><polygon class="cls-1" points="55.95 16.34 55.95 20.12 55.1 20.12 55.1 14.11 56.1 14.11 57.19 17.55 57.19 14.11 58.03 14.11 58.03 20.12 57.14 20.12 55.95 16.34"/><path class="cls-1" d="M24,26.63h.81l-.4-2.41h0Zm-1.26,1.91,1.13-6H25l1.15,6h-1L25,27.44H23.89l-.18,1.1Z"/><polygon class="cls-1" points="27.33 24.76 27.33 28.54 26.48 28.54 26.48 22.53 27.47 22.53 28.56 25.98 28.56 22.53 29.4 22.53 29.4 28.54 28.52 28.54 27.33 24.76"/><path class="cls-1" d="M31.29,27.71c.42,0,.58-.24.58-.61V24a.53.53,0,0,0-.58-.6h-.42v4.36Zm1.59-3.57v2.78c0,.93-.38,1.62-1.46,1.62H29.86v-6h1.56c1.08,0,1.46.68,1.46,1.61"/><path class="cls-1" d="M35.74,23.35v2.37h.37a.44.44,0,0,0,.5-.5V23.84c0-.33-.15-.49-.5-.49Zm-1-.82h1.5c1,0,1.39.5,1.39,1.34v1.27c0,.85-.37,1.36-1.39,1.36h-.49v2h-1Z"/><path class="cls-1" d="M39,23.35v1.87h.34a.43.43,0,0,0,.49-.49v-.89a.43.43,0,0,0-.49-.49Zm0,2.43v2.76H38v-6h1.47c1,0,1.39.5,1.39,1.35v.77c0,.64-.23,1-.8,1.16l1,2.73H40Z"/><path class="cls-1" d="M43.35,27.15V23.92c0-.36-.15-.62-.52-.62s-.51.26-.51.62v3.23c0,.36.16.62.51.62s.52-.26.52-.62m-2-.16V24.08a1.53,1.53,0,1,1,3.06,0V27a1.53,1.53,0,1,1-3.06,0"/><path class="cls-1" d="M46.25,27.71c.42,0,.58-.24.58-.61V24a.53.53,0,0,0-.58-.6h-.42v4.36Zm1.59-3.57v2.78c0,.93-.38,1.62-1.46,1.62H44.82v-6h1.56c1.08,0,1.46.68,1.46,1.61"/><path class="cls-1" d="M51.23,22.53v4.55c0,.93-.4,1.53-1.43,1.53a1.35,1.35,0,0,1-1.51-1.53V22.53h1v4.64c0,.36.14.6.5.6s.49-.24.49-.6V22.53Z"/><path class="cls-1" d="M51.68,27V24.08c0-.94.44-1.62,1.5-1.62s1.43.62,1.43,1.5v.71h-.92v-.79c0-.37-.12-.58-.49-.58s-.51.26-.51.62v3.23c0,.36.15.62.51.62s.49-.23.49-.59V26.07h.92v1c0,.86-.35,1.5-1.43,1.5A1.42,1.42,0,0,1,51.68,27"/><polygon class="cls-1" points="54.83 22.53 57.52 22.53 57.52 23.35 56.69 23.35 56.69 28.54 55.67 28.54 55.67 23.35 54.83 23.35 54.83 22.53"/><rect class="cls-1" x="57.87" y="22.53" width="1.01" height="6.01"/><path class="cls-1" d="M61.38,27.15V23.92c0-.36-.15-.62-.52-.62s-.51.26-.51.62v3.23c0,.36.16.62.51.62s.52-.26.52-.62m-2-.16V24.08a1.53,1.53,0,1,1,3.06,0V27a1.53,1.53,0,1,1-3.06,0"/><polygon class="cls-1" points="63.7 24.76 63.7 28.54 62.85 28.54 62.85 22.53 63.84 22.53 64.93 25.98 64.93 22.53 65.77 22.53 65.77 28.54 64.89 28.54 63.7 24.76"/></svg>