<svg id="Layer_1" data-name="Layer 1" xmlns="http://www.w3.org/2000/svg" viewBox="0 0 71 71"><defs><style>.cls-1{fill:#fff;}</style></defs><title>SDGtest</title><path class="cls-1" d="M46.59,47c-.3-.08-1.53-1.79-.55-2.91.16-.18-.33-.73-.2-.74a.89.89,0,0,1,1,.77c0,.21,0,.42,0,.64A11,11,0,0,1,46.59,47m-3,5.56a1.89,1.89,0,0,1-.35-.13c-.6-.31-.53.18-.83.07s.34-.79-.55-.21-.64-.09-1-1.07A2,2,0,0,1,42,48.83a13.49,13.49,0,0,1,2-.53c1.33-.33,1.61-1.11,1.85-.63l.12.25a1.62,1.62,0,0,1,.17.72,11.07,11.07,0,0,1-2.52,3.88M35.8,55.71a10.91,10.91,0,0,1-3.1-.45.44.44,0,0,1-.13-.53,2.44,2.44,0,0,1,2.16-1.31c1.78-.17,4.13,1.16,4.5.95s1.13-1.2,2.24-1.15a1.6,1.6,0,0,1,1,.25,10.89,10.89,0,0,1-6.67,2.24m-1.49-7.18c-.15.25-.57,2.1-.85,1.89s.12-2.15.2-2.3c.44-.79,1.38-.75.65.41m4.5-2.17a1,1,0,0,1-1.05-.1c-.28-.22.17-.57.34-.59.37,0,.93.49.71.69m4.86,0c-.12,0-.23-.16-.32-.43s.14-.42.37-.31a1.05,1.05,0,0,1,.51.63c0,.18-.44.16-.56.11m.46.34c.37,0,.93.48.71.68a1,1,0,0,1-1.05-.09c-.27-.22.18-.58.34-.59M32.32,51.09a3,3,0,0,1-.68,1.41,2.25,2.25,0,0,1-1.5.57c-.5,0-.57-1.37-.57-2.06,0-.23-.33.47-.51-1-.11-.92-.7.09-.74-.52s-.33-.48-.64-.87-.69,0-1.12.23-.25.29-.86.1l0,0a11,11,0,0,1-.86-4.28,10,10,0,0,1,.06-1.1.36.36,0,0,1,.07-.1c.58-.69.57-.85.57-.85l.64-.22a10.83,10.83,0,0,1,1.8.45c.64.24,1.65.78,2.23.54.42-.17.75-.4.72-.75s-.4-.55-.82-.25c-.16.11-.49-.67-.74-.63s.31.91.1.95-.67-.91-.74-1.06-.42-.54-.73-.25c-.65.62-1.7.58-1.91.74-.65.48-.82-.16-.8-.55a2.76,2.76,0,0,1,.08-.27,1.29,1.29,0,0,1,1.22-.13c.29.19.49-.05.6-.17s.08-.29,0-.44.14-.27.29-.31a8.86,8.86,0,0,0,.83-.49,2.68,2.68,0,0,1,1.67,0,.89.89,0,0,0,1.1-.22,2.89,2.89,0,0,1,.8-.67c.16-.07-.39-.59-.85,0s-.68.61-.9.61-1.48-.32-1.64-.72.4-.7.87-.92a11.45,11.45,0,0,1,2.08-.3c.67-.14,1.52-.48,1.95-.18s-1.79.79-1.06,1.18c.26.15,1.43-.67,1.83-.88.95-.49-.91-.65-.67-1.64s-2.29-.69-3.56-.6a11,11,0,0,1,16.62,6.72,1.48,1.48,0,0,1-.06.51.71.71,0,0,1-1.28.1c-.12-.16-.59-.61-.57.16s.74.84,0,1.29a2.87,2.87,0,0,1-1.16.47c-.33.11-.64.9-.57,1.32s1.08,1.57.34,1.52A4.37,4.37,0,0,1,41.55,46c-.22-.6-.47-1.2-.65-1.66a.66.66,0,0,0-1-.3c-.39.26.11.53-.17,1.11s-.48,1.08-.9.61c-1.07-1.24-2.63-.63-2.88-2-.13-.75-.77-.68-1.3-1.1s-.84-.64-.93-.34,1.68,1.66,1.81,2c.18.53-.53,1-1.05,1.13s-.76-.3-1.27-.83-.73-.92-.77-.5a2.41,2.41,0,0,0,1,1.83c.44.28.94.41.8.87s0,.2-.51.69a1.36,1.36,0,0,0-.56,1.34c0,.69-.14.73-.25,1.3s-.35.08-.57.91M26.42,39l.06-.06a1.45,1.45,0,0,1,.87-.32c.27,0,.64.09.68.28s-.69.51-.82.63c-.38.35-1,1.06-1.33,1.14a.38.38,0,0,1-.28,0A10.91,10.91,0,0,1,26.42,39M27,37.83c.14-.21.62-.8.67-.88a.84.84,0,0,1,.54-.22c.16,0,.39.07.41.19a1.46,1.46,0,0,1-.14.7,1.88,1.88,0,0,1-1.17.53c-.26,0-.36-.24-.31-.32m35,6.55a32.64,32.64,0,0,0-52.37-.07l-.21.3.21.29A32.61,32.61,0,0,0,62,45a2.86,2.86,0,0,0,.21-.29c0-.09-.12-.18-.2-.3"/><polygon class="cls-1" points="8.65 5.64 8.63 20.02 6.22 20.01 6.23 9.01 6.21 9.01 4.51 10.77 4.49 10.77 4.49 8.24 6.72 5.64 8.65 5.64"/><path class="cls-1" d="M16.62,8.77V10A2.3,2.3,0,0,1,15,12.35a2.21,2.21,0,0,1,1.78,2.44v2.12c0,2-1.07,3.28-3.51,3.28s-3.32-1.4-3.32-3.59V14.72h2.21v2.06c0,.84.29,1.39,1.12,1.4s1.08-.53,1.08-1.3V14.51a1,1,0,0,0-1.18-1.17h-1V11.5H13c.79,0,1.3-.4,1.3-1.17V8.78c0-.78-.27-1.29-1-1.29s-1,.51-1.05,1.4v1.46h-2.2V9.08c0-2.12.87-3.61,3.37-3.6,2.23,0,3.2,1.25,3.2,3.29"/><path class="cls-1" d="M21.65,10.05V7.14a1.42,1.42,0,0,1,1.51-1.62c1.12,0,1.43.63,1.43,1.51v.71h-.93V7c0-.37-.13-.58-.49-.58s-.52.25-.52.62v3.22c0,.37.15.63.51.63s.49-.23.49-.59V9.14h.92v1c0,.86-.35,1.5-1.43,1.5s-1.5-.7-1.5-1.63"/><polygon class="cls-1" points="25.14 5.6 26.15 5.6 26.14 10.79 27.35 10.79 27.35 11.61 25.13 11.61 25.14 5.6"/><rect class="cls-1" x="25.31" y="8.1" width="6.01" height="1.01" transform="translate(19.66 36.91) rotate(-89.91)"/><polygon class="cls-1" points="32.19 7.72 32.17 7.72 31.48 11.62 31.01 11.62 30.26 7.71 30.24 7.71 30.24 11.62 29.4 11.62 29.41 5.6 30.59 5.61 31.24 8.99 31.25 8.99 31.84 5.61 33.12 5.61 33.11 11.62 32.19 11.62 32.19 7.72"/><path class="cls-1" d="M34.8,9.72h.8l-.39-2.41h0Zm-1.27,1.9,1.14-6h1.15l1.14,6h-1l-.18-1.09H34.66l-.18,1.1Z"/><polygon class="cls-1" points="36.82 5.61 39.51 5.62 39.51 6.44 38.67 6.44 38.67 11.63 37.65 11.63 37.66 6.44 36.82 6.44 36.82 5.61"/><polygon class="cls-1" points="39.98 5.62 42.39 5.62 42.39 6.45 40.99 6.45 40.98 8.16 41.99 8.17 41.99 8.98 40.98 8.98 40.98 10.81 42.38 10.81 42.38 11.63 39.97 11.63 39.98 5.62"/><path class="cls-1" d="M22.75,18.12h.8l-.39-2.41h0ZM21.48,20l1.14-6h1.15l1.14,6h-1l-.18-1.1H22.61L22.43,20Z"/><path class="cls-1" d="M25.19,18.48V15.57A1.42,1.42,0,0,1,26.71,14c1.11,0,1.42.62,1.42,1.51v.71h-.92v-.79c0-.37-.12-.59-.49-.59s-.51.26-.51.62v3.23c0,.36.15.62.52.62s.48-.23.48-.58V17.57h.92v1c0,.86-.36,1.5-1.43,1.5a1.43,1.43,0,0,1-1.51-1.63"/><polygon class="cls-1" points="28.48 14.03 31.16 14.03 31.16 14.85 30.33 14.85 30.32 20.04 29.3 20.04 29.31 14.85 28.48 14.85 28.48 14.03"/><rect class="cls-1" x="29.13" y="16.53" width="6.01" height="1.01" transform="translate(15.05 49.14) rotate(-89.91)"/><path class="cls-1" d="M35.27,18.65V15.43c0-.37-.16-.62-.53-.63s-.51.26-.51.62v3.23c0,.37.16.62.52.62s.52-.25.52-.62m-2.05-.16V15.58a1.53,1.53,0,1,1,3.06,0V18.5a1.53,1.53,0,1,1-3.06,0"/><polygon class="cls-1" points="37.71 16.27 37.71 20.05 36.86 20.05 36.86 14.04 37.86 14.04 38.94 17.49 38.95 14.04 39.79 14.04 39.78 20.05 38.9 20.05 37.71 16.27"/></svg>