<svg id="Layer_1" data-name="Layer 1" xmlns="http://www.w3.org/2000/svg" viewBox="0 0 71 71"><defs><style>.cls-1{fill:#fff;}</style></defs><title>SDGtest</title><path class="cls-1" d="M12.48,54H23.21a.27.27,0,0,0,.26-.27.28.28,0,0,0-.07-.17v0l-5.34-6.9L18,46.58a.29.29,0,0,0-.2-.09.28.28,0,0,0-.17.07l0,0-.05,0-5.21,6.84-.08.1a.23.23,0,0,0,0,.14.26.26,0,0,0,.26.27"/><path class="cls-1" d="M23.18,55H12.43a.27.27,0,0,0-.27.26v8.42a.27.27,0,0,0,.27.26h3.46V58.62a.26.26,0,0,1,.26-.27h3.21a.26.26,0,0,1,.26.27v5.29h3.56a.26.26,0,0,0,.26-.26V55.23a.26.26,0,0,0-.26-.26"/><path class="cls-1" d="M59.37,56.21a.26.26,0,0,1-.26.26H55.93a.26.26,0,0,1-.26-.26V54.28a.26.26,0,0,1,.26-.25h3.18a.26.26,0,0,1,.26.25Zm0,3.57a.26.26,0,0,1-.26.26H55.93a.26.26,0,0,1-.26-.26V57.85a.26.26,0,0,1,.26-.25h3.18a.26.26,0,0,1,.26.25Zm-4.86-3.57a.26.26,0,0,1-.26.26H51.07a.26.26,0,0,1-.26-.26V54.28a.26.26,0,0,1,.26-.25h3.18a.25.25,0,0,1,.26.25Zm0,3.57a.26.26,0,0,1-.26.26H51.07a.26.26,0,0,1-.26-.26V57.85a.26.26,0,0,1,.26-.25h3.18a.25.25,0,0,1,.26.25Zm5.82-7H49.69a.26.26,0,0,0-.26.25V63.77a.26.26,0,0,0,.26.25H60.33a.25.25,0,0,0,.26-.25V53a.25.25,0,0,0-.26-.25"/><path class="cls-1" d="M34.08,35.46a.14.14,0,0,1-.14.14H31.56a.14.14,0,0,1-.14-.14V32.81a.14.14,0,0,1,.14-.14h2.38a.14.14,0,0,1,.14.14Zm0,6.11a.13.13,0,0,1-.14.13H31.56a.13.13,0,0,1-.14-.13V38.91a.14.14,0,0,1,.14-.14h2.38a.14.14,0,0,1,.14.14Zm0,6.1a.13.13,0,0,1-.14.13H31.56a.13.13,0,0,1-.14-.13V45a.14.14,0,0,1,.14-.14h2.38a.14.14,0,0,1,.14.14Zm0,6.1a.13.13,0,0,1-.14.13H31.56a.13.13,0,0,1-.14-.13V51.11a.13.13,0,0,1,.14-.13h2.38a.13.13,0,0,1,.14.13Zm0,6.1a.14.14,0,0,1-.14.14H31.56a.14.14,0,0,1-.14-.14V57.21a.13.13,0,0,1,.14-.13h2.38a.13.13,0,0,1,.14.13ZM29.4,35.46a.13.13,0,0,1-.13.14H26.88a.13.13,0,0,1-.13-.14V32.81a.13.13,0,0,1,.13-.14h2.39a.13.13,0,0,1,.13.14Zm0,6.11a.13.13,0,0,1-.13.13H26.88a.13.13,0,0,1-.13-.13V38.91a.13.13,0,0,1,.13-.14h2.39a.13.13,0,0,1,.13.14Zm0,6.1a.13.13,0,0,1-.13.13H26.88a.13.13,0,0,1-.13-.13V45a.14.14,0,0,1,.13-.14h2.39a.14.14,0,0,1,.13.14Zm0,6.1a.13.13,0,0,1-.13.13H26.88a.13.13,0,0,1-.13-.13V51.11a.13.13,0,0,1,.13-.13h2.39a.13.13,0,0,1,.13.13Zm0,6.1a.13.13,0,0,1-.13.14H26.88a.13.13,0,0,1-.13-.14V57.21a.13.13,0,0,1,.13-.13h2.39a.13.13,0,0,1,.13.13Zm6.2-32H25.18a.25.25,0,0,0-.25.25V63.67a.26.26,0,0,0,.25.26H35.6a.26.26,0,0,0,.25-.26V28.08a.25.25,0,0,0-.25-.25"/><rect class="cls-1" x="49.44" y="49.33" width="11.14" height="2.57" rx="0.21"/><path class="cls-1" d="M47,45.42a.26.26,0,0,1-.25.26H43.63a.26.26,0,0,1-.25-.26V43.48a.26.26,0,0,1,.25-.26h3.11a.26.26,0,0,1,.25.26ZM47,49a.26.26,0,0,1-.25.26H43.63a.26.26,0,0,1-.25-.26V47.07a.26.26,0,0,1,.25-.26h3.11a.26.26,0,0,1,.25.26Zm0,3.59a.26.26,0,0,1-.25.26H43.63a.26.26,0,0,1-.25-.26V50.66a.26.26,0,0,1,.25-.26h3.11a.26.26,0,0,1,.25.26Zm0,3.59a.26.26,0,0,1-.25.26H43.63a.26.26,0,0,1-.25-.26V54.25a.26.26,0,0,1,.25-.26h3.11a.26.26,0,0,1,.25.26Zm0,3.59a.26.26,0,0,1-.25.26H43.63a.26.26,0,0,1-.25-.26V57.84a.25.25,0,0,1,.25-.25h3.11a.25.25,0,0,1,.25.25Zm-4.73-15V49a.26.26,0,0,1-.26.25H38.9a.26.26,0,0,1-.26-.25v-.54a.3.3,0,0,1,0-.1l0,0,0,0,0,0c.4-.57,2.19-2.78,2.94-3.7l.07-.09a.34.34,0,0,1,.23-.11.31.31,0,0,1,.29.24Zm0,7.86a.26.26,0,0,1-.26.26h-3.1a.26.26,0,0,1-.26-.26V50.66a.26.26,0,0,1,.26-.26H42a.26.26,0,0,1,.26.26Zm0,3.59a.26.26,0,0,1-.26.26h-3.1a.26.26,0,0,1-.26-.26V54.25a.26.26,0,0,1,.26-.26H42a.26.26,0,0,1,.26.26Zm0,3.59A.26.26,0,0,1,42,60h-3.1a.26.26,0,0,1-.26-.26V57.84a.26.26,0,0,1,.26-.25H42a.26.26,0,0,1,.26.25ZM43.87,41.6l.07-.09c.7-.9,1.88-2.35,2.46-3.06l.07-.09a.3.3,0,0,1,.23-.11.28.28,0,0,1,.28.24v3.28a.3.3,0,0,1-.28.3H44.09a.3.3,0,0,1-.28-.3.27.27,0,0,1,.06-.17m4.31-7.05a.28.28,0,0,0-.27-.2.24.24,0,0,0-.14,0h0l-.09.11-10.24,13,0,.06a.25.25,0,0,0-.09.2V63.72a.26.26,0,0,0,.25.26H48a.26.26,0,0,0,.25-.26V34.65a.36.36,0,0,0,0-.1"/><polygon class="cls-1" points="5.32 8.28 5.32 10.8 5.34 10.8 7.04 9.04 7.06 9.04 7.06 20.05 9.48 20.05 9.48 5.67 7.55 5.67 5.32 8.28"/><polygon class="cls-1" points="10.83 8.28 10.83 10.8 10.86 10.8 12.55 9.04 12.57 9.04 12.57 20.05 14.99 20.05 14.99 5.67 13.06 5.67 10.83 8.28"/><path class="cls-1" d="M19.39,10.4V9.59h.94v.83c0,.34.15.53.49.53s.46-.21.46-.53v-.23a1.07,1.07,0,0,0-.45-.85l-.59-.6a2,2,0,0,1-.85-1.6V6.93a1.26,1.26,0,0,1,1.42-1.32c1,0,1.41.5,1.41,1.37v.49H21.3V6.94q0-.51-.48-.51a.44.44,0,0,0-.48.49v.13c0,.34.19.53.48.82l.65.63a2,2,0,0,1,.81,1.56v.3a1.3,1.3,0,0,1-1.47,1.41,1.25,1.25,0,0,1-1.42-1.37"/><path class="cls-1" d="M25.65,5.68v4.55c0,.93-.4,1.54-1.42,1.54a1.36,1.36,0,0,1-1.51-1.54V5.68h1v4.65c0,.35.14.59.5.59s.49-.24.49-.59V5.68Z"/><path class="cls-1" d="M26.08,10.4V9.59H27v.83c0,.34.15.53.5.53s.46-.21.46-.53v-.23a1.09,1.09,0,0,0-.46-.85l-.59-.6a2,2,0,0,1-.84-1.6V6.93a1.25,1.25,0,0,1,1.42-1.32c1,0,1.41.5,1.41,1.37v.49H28V6.94c0-.34-.16-.51-.47-.51a.44.44,0,0,0-.48.49v.13c0,.34.18.53.48.82l.64.63A2,2,0,0,1,29,10.06v.3a1.3,1.3,0,0,1-1.47,1.41,1.26,1.26,0,0,1-1.43-1.37"/><polygon class="cls-1" points="29.16 5.68 31.85 5.68 31.85 6.51 31.02 6.51 31.02 11.7 30 11.7 30 6.51 29.16 6.51 29.16 5.68"/><path class="cls-1" d="M32.89,9.79h.8L33.3,7.38h0ZM31.62,11.7l1.13-6h1.16l1.14,6H34l-.18-1.1H32.75l-.17,1.1Z"/><rect class="cls-1" x="35.37" y="5.68" width="1.01" height="6.01"/><polygon class="cls-1" points="37.72 7.92 37.72 11.7 36.87 11.7 36.87 5.68 37.86 5.68 38.95 9.13 38.95 5.68 39.79 5.68 39.79 11.7 38.91 11.7 37.72 7.92"/><path class="cls-1" d="M41.38,9.79h.81l-.4-2.41h0ZM40.11,11.7l1.14-6H42.4l1.14,6h-1l-.19-1.1H41.25l-.18,1.1Z"/><path class="cls-1" d="M44.87,9v1.88h.45a.43.43,0,0,0,.49-.49v-.9c0-.32-.15-.49-.5-.49Zm0-.77h.36a.43.43,0,0,0,.48-.49V7a.43.43,0,0,0-.49-.49h-.35Zm-1-2.54h1.47c1,0,1.34.47,1.34,1.33v.61a.88.88,0,0,1-.6,1,.91.91,0,0,1,.75,1v.79c0,.86-.38,1.32-1.39,1.32H43.86Z"/><polygon class="cls-1" points="47.23 5.68 48.24 5.68 48.24 10.87 49.45 10.87 49.45 11.7 47.23 11.7 47.23 5.68"/><polygon class="cls-1" points="49.81 5.68 52.22 5.68 52.22 6.51 50.82 6.51 50.82 8.23 51.82 8.23 51.82 9.04 50.82 9.04 50.82 10.87 52.22 10.87 52.22 11.7 49.81 11.7 49.81 5.68"/><path class="cls-1" d="M54.09,10.14V7.24c0-.94.44-1.63,1.51-1.63S57,6.23,57,7.12v.71H56.1V7c0-.37-.12-.59-.49-.59s-.51.26-.51.63V10.3c0,.37.15.62.51.62s.49-.23.49-.58V9.23H57v1c0,.86-.36,1.5-1.43,1.5s-1.51-.69-1.51-1.63"/><rect class="cls-1" x="57.47" y="5.68" width="1.01" height="6.01"/><polygon class="cls-1" points="58.86 5.68 61.55 5.68 61.55 6.51 60.71 6.51 60.71 11.7 59.69 11.7 59.69 6.51 58.86 6.51 58.86 5.68"/><rect class="cls-1" x="61.92" y="5.68" width="1.01" height="6.01"/><polygon class="cls-1" points="63.41 5.68 65.83 5.68 65.83 6.51 64.42 6.51 64.42 8.23 65.43 8.23 65.43 9.04 64.42 9.04 64.42 10.87 65.83 10.87 65.83 11.7 63.41 11.7 63.41 5.68"/><path class="cls-1" d="M66.17,10.4V9.59h.94v.83c0,.34.15.53.5.53s.46-.21.46-.53v-.23a1.07,1.07,0,0,0-.45-.85l-.6-.6a2,2,0,0,1-.84-1.6V6.93A1.26,1.26,0,0,1,67.6,5.61c1,0,1.41.5,1.41,1.37v.49h-.92V6.94q0-.51-.48-.51a.44.44,0,0,0-.48.49v.13c0,.34.19.53.48.82l.65.63a2,2,0,0,1,.81,1.56v.3a1.3,1.3,0,0,1-1.47,1.41,1.26,1.26,0,0,1-1.43-1.37"/><path class="cls-1" d="M20.55,18.21h.8L21,15.8h0Zm-1.27,1.91,1.13-6h1.16l1.14,6h-1L21.49,19H20.41l-.17,1.1Z"/><polygon class="cls-1" points="23.88 16.34 23.88 20.12 23.03 20.12 23.03 14.11 24.02 14.11 25.11 17.55 25.11 14.11 25.95 14.11 25.95 20.12 25.07 20.12 23.88 16.34"/><path class="cls-1" d="M27.87,19.29c.42,0,.58-.25.58-.61V15.53a.53.53,0,0,0-.58-.6h-.42v4.36Zm1.59-3.57V18.5c0,.92-.38,1.62-1.47,1.62H26.43v-6H28c1.09,0,1.47.69,1.47,1.62"/><path class="cls-1" d="M31.36,18.57V15.66c0-.94.44-1.63,1.51-1.63s1.42.62,1.42,1.51v.71h-.92v-.79c0-.37-.12-.58-.49-.58s-.51.25-.51.62v3.23c0,.36.15.62.51.62s.49-.23.49-.59V17.65h.92v1c0,.86-.35,1.5-1.42,1.5a1.42,1.42,0,0,1-1.51-1.62"/><path class="cls-1" d="M36.79,18.73V15.5c0-.37-.16-.62-.52-.62s-.52.25-.52.62v3.23c0,.36.17.62.52.62s.52-.26.52-.62m-2-.16V15.66a1.53,1.53,0,1,1,3.06,0v2.91a1.53,1.53,0,1,1-3.06,0"/><polygon class="cls-1" points="41.07 16.22 41.04 16.22 40.36 20.12 39.89 20.12 39.13 16.22 39.12 16.22 39.12 20.12 38.28 20.12 38.28 14.1 39.46 14.1 40.12 17.49 40.13 17.49 40.71 14.1 41.99 14.1 41.99 20.12 41.07 20.12 41.07 16.22"/><polygon class="cls-1" points="45.25 16.22 45.22 16.22 44.54 20.12 44.07 20.12 43.32 16.22 43.3 16.22 43.3 20.12 42.47 20.12 42.47 14.1 43.65 14.1 44.3 17.49 44.31 17.49 44.9 14.1 46.17 14.1 46.17 20.12 45.25 20.12 45.25 16.22"/><path class="cls-1" d="M49.59,14.1v4.55c0,.94-.4,1.54-1.43,1.54a1.36,1.36,0,0,1-1.51-1.54V14.1h1v4.65c0,.36.14.6.5.6s.5-.24.5-.6V14.1Z"/><polygon class="cls-1" points="50.91 16.34 50.91 20.12 50.06 20.12 50.06 14.11 51.06 14.11 52.15 17.55 52.15 14.11 52.99 14.11 52.99 20.12 52.1 20.12 50.91 16.34"/><rect class="cls-1" x="53.47" y="14.1" width="1.01" height="6.01"/><polygon class="cls-1" points="54.85 14.11 57.54 14.11 57.54 14.93 56.7 14.93 56.7 20.12 55.68 20.12 55.68 14.93 54.85 14.93 54.85 14.11"/><rect class="cls-1" x="57.91" y="14.1" width="1.01" height="6.01"/><polygon class="cls-1" points="59.41 14.11 61.82 14.11 61.82 14.93 60.42 14.93 60.42 16.65 61.42 16.65 61.42 17.46 60.42 17.46 60.42 19.29 61.82 19.29 61.82 20.12 59.41 20.12 59.41 14.11"/><path class="cls-1" d="M62.17,18.82V18h.94v.82c0,.34.15.53.49.53s.46-.21.46-.53v-.23a1.07,1.07,0,0,0-.45-.85l-.59-.6a2,2,0,0,1-.85-1.6v-.2A1.26,1.26,0,0,1,63.59,14c1,0,1.41.5,1.41,1.37v.49h-.92v-.53q0-.51-.48-.51a.45.45,0,0,0-.48.5v.12c0,.34.19.53.48.82l.65.63a2,2,0,0,1,.81,1.56v.3a1.3,1.3,0,0,1-1.47,1.41,1.25,1.25,0,0,1-1.42-1.37"/></svg>