<svg id="Layer_1" data-name="Layer 1" xmlns="http://www.w3.org/2000/svg" viewBox="0 0 71 71"><defs><style>.cls-1{fill:#fff;}</style></defs><title>SDGtest</title><path class="cls-1" d="M47.31,32.22A2.56,2.56,0,0,0,46.82,34,2.54,2.54,0,0,0,48,35.46a2.51,2.51,0,0,0,.49-1.81,2.54,2.54,0,0,0-1.22-1.43"/><path class="cls-1" d="M46.18,37.47a2.58,2.58,0,0,0,.49-1.82,2.58,2.58,0,0,0-1.22-1.43A2.53,2.53,0,0,0,45,36a2.54,2.54,0,0,0,1.22,1.43"/><path class="cls-1" d="M49,36.48a2.28,2.28,0,0,0,1.56.67A2.41,2.41,0,0,0,52,36.22a2.28,2.28,0,0,0-1.56-.67,2.41,2.41,0,0,0-1.45.93"/><path class="cls-1" d="M50.22,32.54a2.8,2.8,0,0,0-.58,1.91,2.67,2.67,0,0,0,1.88-.58A2.8,2.8,0,0,0,52.1,32a2.67,2.67,0,0,0-1.88.58"/><path class="cls-1" d="M48.73,39.22a2.36,2.36,0,0,0,1.61-.62,2.27,2.27,0,0,0-1.39-1,2.42,2.42,0,0,0-1.62.62,2.3,2.3,0,0,0,1.4,1"/><path class="cls-1" d="M49.47,52.56h-6.2a.88.88,0,1,0,0,1.75h6.2a.88.88,0,1,0,0-1.75"/><path class="cls-1" d="M49.47,62.23h-6.2a.88.88,0,1,0,0,1.76h6.2a.88.88,0,0,0,0-1.76"/><path class="cls-1" d="M21.58,50.43a2.47,2.47,0,0,0-.43-.11s.15,0,.43.11"/><path class="cls-1" d="M31.63,54.22q.61,0,1.23,0v3.24l-1.23,0Zm17.61.71H43.49a.49.49,0,0,0-.49.5v1.74l-3.76.41-5.48-.13V54.1a13.81,13.81,0,0,0,2.18-.44c5.28-1.49,6.43-4.77,6.31-7.79s.87-4.27,2.29-4.8a6.17,6.17,0,0,1,1.17-.31,9.22,9.22,0,0,0,.51,2.68l.37,0a8.86,8.86,0,0,1-.52-2.7,6.34,6.34,0,0,1,1.25,0,8.6,8.6,0,0,1-1.19-.85,6,6,0,0,1,2-3.26,11.11,11.11,0,0,0,1.4-1.64l-.31-.21a10.9,10.9,0,0,1-1.35,1.59,6.38,6.38,0,0,0-2,3.25c-.29-.26-.59-.56-.91-.91-1.3-1.46-3-.39-5.36,1.83s-5.4,2.3-8.33-.7c-3.87-4-7.25-3.94-9.57-3.72,1.59.68,2.14,2.16,2.94,5.92.84,4,3,5.74,5.86,6-1.34.22-1.69.41-3.85,1.9-1.69,1.17-4.06.8-5,.58,1.76.55,3.86,2.4,5.73,3a14.43,14.43,0,0,0,3.42.7v3.2l-10.4-.22V59.4L39.24,59l3.76.41v1.74a.5.5,0,0,0,.49.5h5.75a.5.5,0,0,0,.5-.5v-5.7a.5.5,0,0,0-.5-.5"/><path class="cls-1" d="M19.79,59a.8.8,0,0,1-.73.85h-.45a.8.8,0,0,1-.73-.85V57.48a.8.8,0,0,1,.73-.85h.45a.8.8,0,0,1,.73.85Z"/><polygon class="cls-1" points="5.45 9.15 5.45 11.67 5.47 11.67 7.16 9.91 7.19 9.91 7.19 20.92 9.6 20.92 9.6 6.54 7.67 6.54 5.45 9.15"/><path class="cls-1" d="M15.67,17.67c0,.92-.34,1.45-1.16,1.45s-1.13-.55-1.13-1.45V15c0-.8.38-1.31,1.15-1.31s1.14.51,1.14,1.44Zm2.4-.21V15.34c0-2.35-.93-3.54-2.67-3.54a2.08,2.08,0,0,0-2,1.17h0V9.87c0-.87.28-1.49,1.15-1.49s1.12.51,1.12,1.4v1h2.21V10c0-2.12-.7-3.6-3.38-3.6S11,8,11,10.25v7c0,2.23,1,3.84,3.53,3.84s3.56-1.4,3.56-3.63"/><path class="cls-1" d="M23.51,7.3V9.67h.37a.44.44,0,0,0,.5-.5V7.79c0-.33-.15-.49-.5-.49Zm-1-.83H24c1,0,1.39.51,1.39,1.35V9.09c0,.84-.37,1.36-1.39,1.36h-.49v2h-1Z"/><polygon class="cls-1" points="25.91 6.47 28.33 6.47 28.33 7.3 26.92 7.3 26.92 9.02 27.93 9.02 27.93 9.84 26.92 9.84 26.92 11.66 28.33 11.66 28.33 12.49 25.91 12.49 25.91 6.47"/><path class="cls-1" d="M30,10.58h.81l-.4-2.41h0Zm-1.26,1.91,1.13-6H31l1.15,6h-1l-.18-1.1H29.84l-.18,1.1Z"/><path class="cls-1" d="M32.42,10.93V8c0-.94.44-1.63,1.51-1.63s1.43.62,1.43,1.51v.71h-.93V7.83c0-.37-.12-.58-.48-.58s-.52.25-.52.62v3.22c0,.37.15.63.52.63s.48-.23.48-.59V10h.93v1c0,.86-.36,1.5-1.43,1.5s-1.51-.69-1.51-1.63"/><polygon class="cls-1" points="35.91 6.47 38.32 6.47 38.32 7.3 36.91 7.3 36.91 9.02 37.92 9.02 37.92 9.84 36.91 9.84 36.91 11.66 38.32 11.66 38.32 12.49 35.91 12.49 35.91 6.47"/><polygon class="cls-1" points="38.94 11.52 38.81 12.96 39.38 12.96 39.9 11.6 39.9 11.52 38.94 11.52"/><path class="cls-1" d="M44.09,6.47v4.65c0,.87-.38,1.44-1.39,1.44s-1.33-.58-1.33-1.34V10h1v1.22c0,.3.11.47.38.47s.38-.17.38-.48V6.47Z"/><path class="cls-1" d="M47.59,6.47V11c0,.93-.4,1.54-1.43,1.54A1.36,1.36,0,0,1,44.66,11V6.47h1v4.65c0,.36.14.59.49.59s.5-.23.5-.59V6.47Z"/><path class="cls-1" d="M48.11,11.19v-.8h.94v.82c0,.34.15.53.5.53s.46-.21.46-.53V11a1.07,1.07,0,0,0-.45-.85l-.6-.6a2,2,0,0,1-.84-1.6v-.2A1.26,1.26,0,0,1,49.54,6.4c1,0,1.41.5,1.41,1.37v.49H50V7.73q0-.51-.48-.51a.45.45,0,0,0-.48.5v.12c0,.34.19.53.48.82l.65.63A2,2,0,0,1,51,10.85v.3a1.3,1.3,0,0,1-1.47,1.41,1.26,1.26,0,0,1-1.43-1.37"/><polygon class="cls-1" points="51.29 6.47 53.98 6.47 53.98 7.3 53.15 7.3 53.15 12.49 52.13 12.49 52.13 7.3 51.29 7.3 51.29 6.47"/><rect class="cls-1" x="54.45" y="6.48" width="1.01" height="6.01"/><path class="cls-1" d="M56.05,10.93V8c0-.94.44-1.63,1.5-1.63S59,7,59,7.91v.71h-.92V7.83c0-.37-.12-.58-.49-.58s-.51.25-.51.62v3.22c0,.37.15.63.51.63s.49-.23.49-.59V10H59v1c0,.86-.35,1.5-1.43,1.5s-1.5-.69-1.5-1.63"/><polygon class="cls-1" points="59.53 6.47 61.94 6.47 61.94 7.3 60.54 7.3 60.54 9.02 61.54 9.02 61.54 9.84 60.54 9.84 60.54 11.66 61.94 11.66 61.94 12.49 59.53 12.49 59.53 6.47"/><path class="cls-1" d="M23.61,19h.81L24,16.59h0Zm-1.27,1.91,1.14-6h1.15l1.14,6h-1l-.19-1.1H23.48l-.18,1.1Z"/><polygon class="cls-1" points="27.04 17.13 27.04 20.91 26.19 20.91 26.19 14.9 27.18 14.9 28.27 18.35 28.27 14.9 29.11 14.9 29.11 20.91 28.23 20.91 27.04 17.13"/><path class="cls-1" d="M31.13,20.08c.41,0,.57-.24.57-.61V16.32a.52.52,0,0,0-.57-.6H30.7v4.36Zm1.58-3.57v2.78c0,.93-.38,1.62-1.46,1.62H29.69v-6h1.56c1.08,0,1.46.68,1.46,1.61"/><path class="cls-1" d="M34.76,19.61v-.8h.94v.82c0,.34.15.54.49.54s.47-.22.47-.54V19.4a1.1,1.1,0,0,0-.46-.85L35.61,18a2,2,0,0,1-.84-1.61v-.2a1.25,1.25,0,0,1,1.41-1.32c1,0,1.41.49,1.41,1.36v.49h-.92v-.52c0-.35-.16-.52-.48-.52a.45.45,0,0,0-.48.5v.12c0,.34.19.53.48.82l.65.64a2,2,0,0,1,.82,1.56v.29A1.31,1.31,0,0,1,36.18,21a1.25,1.25,0,0,1-1.42-1.37"/><polygon class="cls-1" points="37.94 14.9 40.63 14.9 40.63 15.72 39.79 15.72 39.79 20.91 38.77 20.91 38.77 15.72 37.94 15.72 37.94 14.9"/><path class="cls-1" d="M42.11,15.72v1.87h.33c.35,0,.5-.17.5-.49v-.89c0-.33-.15-.49-.5-.49Zm0,2.43v2.76h-1v-6h1.47c1,0,1.39.5,1.39,1.34V17a1,1,0,0,1-.81,1.16l1,2.73H43.05Z"/><path class="cls-1" d="M46.56,19.52V16.29c0-.36-.16-.62-.53-.62s-.51.26-.51.62v3.23c0,.36.16.62.51.62s.53-.26.53-.62m-2.05-.16V16.45a1.53,1.53,0,1,1,3.06,0v2.91a1.53,1.53,0,1,1-3.06,0"/><polygon class="cls-1" points="48.99 17.13 48.99 20.91 48.14 20.91 48.14 14.9 49.14 14.9 50.23 18.35 50.23 14.9 51.07 14.9 51.07 20.91 50.18 20.91 48.99 17.13"/><path class="cls-1" d="M53.17,17.7h1.44v3.21h-.73v-.66a.92.92,0,0,1-1,.73c-.87,0-1.27-.69-1.27-1.62V16.45a1.43,1.43,0,0,1,1.52-1.62c1.12,0,1.45.62,1.45,1.5v.53h-.93v-.61c0-.37-.14-.58-.5-.58s-.53.26-.53.62v3.23c0,.36.16.62.5.62s.5-.19.5-.58V18.5h-.48Z"/><rect class="cls-1" x="22.5" y="23.32" width="1.01" height="6.01"/><polygon class="cls-1" points="24.95 25.55 24.95 29.33 24.1 29.33 24.1 23.32 25.09 23.32 26.18 26.77 26.18 23.32 27.02 23.32 27.02 29.33 26.14 29.33 24.95 25.55"/><path class="cls-1" d="M27.54,28v-.81h.95v.82c0,.34.15.54.49.54s.46-.22.46-.54v-.23A1.09,1.09,0,0,0,29,27l-.59-.59a2,2,0,0,1-.85-1.61v-.2A1.25,1.25,0,0,1,29,23.25c1,0,1.41.49,1.41,1.36v.49h-.92v-.52c0-.35-.16-.52-.48-.52a.45.45,0,0,0-.48.5v.12c0,.34.19.54.48.82l.65.64a2,2,0,0,1,.81,1.56V28A1.3,1.3,0,0,1,29,29.4,1.25,1.25,0,0,1,27.54,28"/><polygon class="cls-1" points="30.73 23.32 33.41 23.32 33.41 24.14 32.58 24.14 32.58 29.33 31.56 29.33 31.56 24.14 30.73 24.14 30.73 23.32"/><rect class="cls-1" x="33.88" y="23.32" width="1.01" height="6.01"/><polygon class="cls-1" points="35.36 23.32 38.05 23.32 38.05 24.14 37.22 24.14 37.22 29.33 36.2 29.33 36.2 24.14 35.36 24.14 35.36 23.32"/><path class="cls-1" d="M41.45,23.32v4.55c0,.93-.39,1.53-1.42,1.53a1.35,1.35,0,0,1-1.51-1.53V23.32h1V28c0,.36.14.6.5.6s.49-.24.49-.6V23.32Z"/><polygon class="cls-1" points="41.91 23.32 44.6 23.32 44.6 24.14 43.77 24.14 43.77 29.33 42.75 29.33 42.75 24.14 41.91 24.14 41.91 23.32"/><rect class="cls-1" x="45.07" y="23.32" width="1.01" height="6.01"/><path class="cls-1" d="M48.71,27.94V24.71c0-.36-.15-.62-.52-.62s-.51.26-.51.62v3.23c0,.36.16.62.51.62s.52-.26.52-.62m-2-.16V24.87a1.53,1.53,0,1,1,3.06,0v2.91a1.53,1.53,0,1,1-3.06,0"/><polygon class="cls-1" points="51.15 25.55 51.15 29.33 50.3 29.33 50.3 23.32 51.29 23.32 52.38 26.77 52.38 23.32 53.23 23.32 53.23 29.33 52.34 29.33 51.15 25.55"/><path class="cls-1" d="M53.75,28v-.81h.94v.82c0,.34.15.54.5.54s.46-.22.46-.54v-.23A1.09,1.09,0,0,0,55.2,27l-.6-.59a2,2,0,0,1-.84-1.61v-.2a1.25,1.25,0,0,1,1.42-1.32c1,0,1.41.49,1.41,1.36v.49h-.93v-.52c0-.35-.15-.52-.47-.52a.44.44,0,0,0-.48.5v.12c0,.34.18.54.48.82l.64.64a2,2,0,0,1,.82,1.56V28a1.3,1.3,0,0,1-1.47,1.41A1.25,1.25,0,0,1,53.75,28"/></svg>