<svg id="Layer_1" data-name="Layer 1" xmlns="http://www.w3.org/2000/svg" viewBox="0 0 71 71"><defs><style>.cls-1{fill:#fff;}</style></defs><title>SDGtest</title><path class="cls-1" d="M54.88,34a2,2,0,1,1,2,2,2,2,0,0,1-2-2"/><path class="cls-1" d="M59.18,36.71a2.63,2.63,0,0,1,2.4,2.63v5.51a.77.77,0,0,1-1.54,0V40.12c0-.18,0-.42-.37-.42s-.27.24-.28.39V54.26a1.11,1.11,0,1,1-2.21,0V46.1a.31.31,0,0,0-.32-.33h0a.3.3,0,0,0-.32.33v8.16a1.11,1.11,0,1,1-2.21,0V40.09c0-.15-.06-.39-.28-.39s-.37.24-.37.42v4.73a.77.77,0,0,1-1.54,0V39.34a2.63,2.63,0,0,1,2.4-2.63l.15,0H59l.15,0"/><path class="cls-1" d="M43.07,35a1.88,1.88,0,1,0-1.88,1.88A1.88,1.88,0,0,0,43.07,35"/><path class="cls-1" d="M37.4,39.26l-1.56,5.08s-.28.94.51,1.17,1-.68,1-.68l1.26-4.24s.07-.33.31-.26.16.42.16.42l-2.2,8h2v5.7a1,1,0,0,0,2,0v-5.7h.56v5.7a1,1,0,0,0,2,0v-5.7h2l-2.2-8s-.09-.35.16-.42.31.26.31.26L45,44.83s.24.91,1,.68.51-1.17.51-1.17L45,39.26s-.56-1.47-1.8-1.47h-4c-1.24,0-1.8,1.47-1.8,1.47"/><path class="cls-1" d="M31.81,35a1.88,1.88,0,1,0-1.88,1.88A1.88,1.88,0,0,0,31.81,35"/><path class="cls-1" d="M26.14,39.26l-1.56,5.08s-.28.94.51,1.17,1-.68,1-.68l1.26-4.24s.07-.33.31-.26.15.42.15.42l-2.19,8h2v5.7a1,1,0,0,0,2,0v-5.7h.56v5.7a1,1,0,0,0,2,0v-5.7h2l-2.19-8s-.1-.35.15-.42.31.26.31.26l1.26,4.24s.24.91,1,.68.51-1.17.51-1.17l-1.56-5.08s-.56-1.47-1.8-1.47h-4c-1.24,0-1.8,1.47-1.8,1.47"/><path class="cls-1" d="M49.38,45.52A1.57,1.57,0,1,0,47.82,44a1.57,1.57,0,0,0,1.56,1.57"/><path class="cls-1" d="M45.63,50.38a.54.54,0,0,0,.23.74.52.52,0,0,0,.67-.22l.85-2.71s.15-.18.15,0v6.38h0a.81.81,0,1,0,1.61,0V52.06s0-.35.24-.35.24.35.24.35v2.52a.81.81,0,1,0,1.61,0V48.2c0-.19.1-.06.1-.06L52,50a4.52,4.52,0,0,0,.38.87.6.6,0,0,0,.77-.32.6.6,0,0,0-.06-.57h0c0-.06-1-2.46-1.11-2.79-.35-1-1-1-1.61-1s-1,0-1,0-.4,0-1.21,0-1.08.44-2,2.75c-.12.34-.56,1.42-.57,1.48Z"/><path class="cls-1" d="M15,34a2,2,0,1,0-2,2,2,2,0,0,0,2-2"/><path class="cls-1" d="M10.71,36.71a2.64,2.64,0,0,0-2.4,2.63v5.51a.77.77,0,0,0,1.54,0V40.12c0-.18.05-.42.38-.42s.27.24.27.39V54.26a1.11,1.11,0,1,0,2.21,0V46.1a.31.31,0,0,1,.32-.33h0a.3.3,0,0,1,.32.33v8.16a1.11,1.11,0,1,0,2.21,0V40.09c0-.15.06-.39.28-.39s.38.24.38.42v4.73a.77.77,0,1,0,1.53,0V39.34a2.63,2.63,0,0,0-2.4-2.63l-.15,0H10.86l-.15,0"/><path class="cls-1" d="M7.22,55.41H7.14a.44.44,0,0,1-.34-.5l1.77-9.34a.42.42,0,0,1,.49-.34.43.43,0,0,1,.34.5L7.63,55.07a.41.41,0,0,1-.41.34"/><path class="cls-1" d="M18.7,44.7a.59.59,0,0,0-.49-.27.58.58,0,0,0-.57.57,1,1,0,0,0,.06.25l1.58,2.86a1,1,0,0,1,.09.37v6.13h0a.77.77,0,1,0,1.54,0V52.2s-.05-.35.23-.35.23.35.23.35v2.41a.78.78,0,1,0,1.55,0V48.48a1,1,0,0,1,.09-.37l1.46-2.64a2.59,2.59,0,0,0,.18-.47.58.58,0,0,0-.57-.57.56.56,0,0,0-.48.27h0s-.78,1.34-1,1.58a.61.61,0,0,1-.48.23H20.2a.61.61,0,0,1-.48-.23c-.24-.24-1-1.54-1-1.58Z"/><path class="cls-1" d="M21.15,45.52A1.57,1.57,0,1,0,19.59,44a1.56,1.56,0,0,0,1.56,1.57"/><polygon class="cls-1" points="21.15 47.72 22.92 49.01 23.76 52.1 21.15 52.1 18.54 52.1 19.38 49.01 21.15 47.72"/><polygon class="cls-1" points="9.66 9.17 9.68 9.17 9.68 20.24 12.11 20.24 12.11 5.78 10.17 5.78 7.93 8.4 7.93 10.94 7.95 10.94 9.66 9.17"/><polygon class="cls-1" points="21.29 8 21.29 11.8 20.43 11.8 20.43 5.75 21.43 5.75 22.53 9.22 22.53 5.75 23.38 5.75 23.38 11.8 22.49 11.8 21.29 8"/><path class="cls-1" d="M26,10.4V7.15c0-.36-.16-.62-.52-.62s-.52.26-.52.62V10.4c0,.36.16.62.52.62s.52-.26.52-.62M24,10.24V7.31a1.54,1.54,0,1,1,3.07,0v2.93a1.54,1.54,0,1,1-3.07,0"/><path class="cls-1" d="M21.45,15.05v2.38h.38a.44.44,0,0,0,.5-.5V15.54c0-.33-.16-.49-.5-.49Zm-1-.83h1.5c1,0,1.4.51,1.4,1.36v1.27c0,.85-.37,1.37-1.4,1.37h-.49v2.05h-1Z"/><path class="cls-1" d="M25.93,18.87V15.62c0-.36-.16-.62-.53-.62s-.52.26-.52.62v3.25c0,.36.16.62.52.62s.53-.26.53-.62m-2.06-.16V15.78a1.54,1.54,0,1,1,3.07,0v2.93a1.54,1.54,0,1,1-3.07,0"/><polygon class="cls-1" points="30.6 14.22 29.45 20.27 28.34 20.27 27.19 14.22 28.23 14.22 28.92 18.44 28.93 18.44 29.64 14.22 30.6 14.22"/><polygon class="cls-1" points="31.02 14.22 33.44 14.22 33.44 15.05 32.03 15.05 32.03 16.78 33.04 16.78 33.04 17.6 32.03 17.6 32.03 19.44 33.44 19.44 33.44 20.27 31.02 20.27 31.02 14.22"/><path class="cls-1" d="M35,15.05v1.88h.34a.44.44,0,0,0,.5-.5v-.89c0-.33-.15-.49-.5-.49Zm0,2.44v2.78H34v-6h1.48c1,0,1.4.51,1.4,1.36v.77c0,.65-.23,1-.81,1.17l1,2.75H36Z"/><polygon class="cls-1" points="37.21 14.22 39.91 14.22 39.91 15.05 39.07 15.05 39.07 20.27 38.05 20.27 38.05 15.05 37.21 15.05 37.21 14.22"/><polygon class="cls-1" points="42.36 17.97 42.36 20.27 41.35 20.27 41.35 17.97 40.21 14.22 41.27 14.22 41.89 16.51 41.9 16.51 42.51 14.22 43.48 14.22 42.36 17.97"/></svg>