<svg id="Layer_1" data-name="Layer 1" xmlns="http://www.w3.org/2000/svg" viewBox="0 0 71 71"><defs><style>.cls-1{fill:#fff;}</style></defs><title>SDGtest</title><path class="cls-1" d="M44,52.84a2.37,2.37,0,1,1,2.38-2.37A2.37,2.37,0,0,1,44,52.84m10.31-1.1c-.9-1.21-6.7-8.61-14.83-8.61-7.06,0-14.61,6.41-14.61,6.41S22,43.73,16.2,43.17h-.15a.24.24,0,0,0-.22.23.74.74,0,0,0,.09.21c.75,1.25,2.66,4.78,2.66,8.31S16.66,59,15.92,60.23l-.05.08a.16.16,0,0,0,0,.12.24.24,0,0,0,.22.23h.12c5.82-.54,8.67-6.37,8.67-6.37s7.55,6.4,14.61,6.4c8.13,0,13.93-7.39,14.83-8.6l.06-.08a.21.21,0,0,0,0-.18l-.06-.08"/><path class="cls-1" d="M24.3,36.5l.07-.06a.25.25,0,0,1,.12,0,.21.21,0,0,1,.16.06h0c4.44,4.23,9.09.8,10.05,0l.1-.09H35l.09.09c1,.8,5.62,4.23,10.05,0h0a.21.21,0,0,1,.16-.06.21.21,0,0,1,.12,0l.07.06c.86.85,4.57,4,8.5.63a.22.22,0,0,0,.07-.16V35.35a.24.24,0,0,0-.23-.24h0l-.12.06A7.14,7.14,0,0,1,45.31,34l-.1-.09a.16.16,0,0,0-.1,0H45a.27.27,0,0,0-.12.09c-1,.77-5.66,3.92-9.8.06L35.06,34a.24.24,0,0,0-.17-.07.24.24,0,0,0-.16.07l-.06.06c-4.14,3.86-8.79.71-9.8-.06a.27.27,0,0,0-.12-.09h-.07a.18.18,0,0,0-.1,0l-.1.09a7.14,7.14,0,0,1-8.35,1.17L16,35.12h0a.23.23,0,0,0-.23.24V37a.21.21,0,0,0,.06.16c3.93,3.42,7.65.22,8.5-.63"/><path class="cls-1" d="M16,29.24h0a.23.23,0,0,0-.23.23v1.62a.24.24,0,0,0,.06.17c3.93,3.41,7.64.21,8.5-.63a.23.23,0,0,1,.07-.07.28.28,0,0,1,.12,0,.23.23,0,0,1,.16.06h0c4.44,4.23,9.08.8,10.05,0l.1-.08a.11.11,0,0,1,.08,0,.16.16,0,0,1,.1,0l.09.08c1,.8,5.62,4.23,10.05,0h0a.23.23,0,0,1,.16-.06.25.25,0,0,1,.12,0,.23.23,0,0,1,.07.07c.86.84,4.57,4,8.5.63a.24.24,0,0,0,.07-.17V29.46a.23.23,0,0,0-.23-.23h0l-.12.06a7.15,7.15,0,0,1-8.35-1.18l-.1-.09-.1,0H45a.2.2,0,0,0-.11.09c-1,.77-5.67,3.92-9.81.06l-.06-.06a.24.24,0,0,0-.17-.07.24.24,0,0,0-.16.07l-.06.06c-4.14,3.86-8.79.71-9.8-.06a.27.27,0,0,0-.12-.09h-.07l-.1,0-.1.09a7.15,7.15,0,0,1-8.35,1.18L16,29.24"/><polygon class="cls-1" points="8.8 5.69 8.8 20.07 6.38 20.07 6.38 9.06 6.36 9.06 4.67 10.82 4.65 10.82 4.65 8.3 6.87 5.69 8.8 5.69"/><path class="cls-1" d="M12.12,15.85l2.17-5.92h0v5.92Zm4.44,4.22V17.74h1V15.85h-1V5.69H14.18L10,16.25v1.49h4.27v2.33Z"/><polygon class="cls-1" points="22.8 5.61 23.82 5.61 23.82 10.8 25.02 10.8 25.02 11.62 22.8 11.62 22.8 5.61"/><rect class="cls-1" x="25.48" y="5.61" width="1.01" height="6.01"/><polygon class="cls-1" points="27.08 5.61 29.45 5.61 29.45 6.44 28.09 6.44 28.09 8.16 29.1 8.16 29.1 8.97 28.09 8.97 28.09 11.62 27.08 11.62 27.08 5.61"/><polygon class="cls-1" points="29.89 5.61 32.3 5.61 32.3 6.44 30.9 6.44 30.9 8.16 31.9 8.16 31.9 8.97 30.9 8.97 30.9 10.8 32.3 10.8 32.3 11.62 29.89 11.62 29.89 5.61"/><path class="cls-1" d="M23.82,17.34v1.88h.44a.44.44,0,0,0,.5-.49v-.9c0-.32-.16-.49-.51-.49Zm0-.77h.35a.43.43,0,0,0,.48-.49v-.73a.43.43,0,0,0-.49-.49h-.34ZM22.8,14h1.47c1,0,1.35.47,1.35,1.32V16a.87.87,0,0,1-.61,1,.92.92,0,0,1,.76,1v.79c0,.86-.39,1.33-1.4,1.33H22.8Z"/><polygon class="cls-1" points="26.27 14.03 28.68 14.03 28.68 14.86 27.28 14.86 27.28 16.58 28.28 16.58 28.28 17.39 27.28 17.39 27.28 19.22 28.68 19.22 28.68 20.05 26.27 20.05 26.27 14.03"/><polygon class="cls-1" points="29.22 14.03 30.23 14.03 30.23 19.22 31.44 19.22 31.44 20.05 29.22 20.05 29.22 14.03"/><path class="cls-1" d="M33.9,18.65V15.43c0-.37-.15-.63-.52-.63s-.51.26-.51.63v3.22c0,.37.16.62.51.62s.52-.25.52-.62m-2-.16v-2.9a1.53,1.53,0,1,1,3.06,0v2.9a1.53,1.53,0,1,1-3.06,0"/><polygon class="cls-1" points="37.58 16.33 37.02 20.05 36.07 20.05 35.26 14.03 36.24 14.03 36.71 17.85 36.71 17.85 37.22 14.03 38.05 14.03 38.6 17.85 38.61 17.85 39.07 14.03 39.92 14.03 39.14 20.05 38.19 20.05 37.59 16.33 37.58 16.33"/><polygon class="cls-1" points="44.06 16.33 43.49 20.05 42.54 20.05 41.74 14.03 42.71 14.03 43.18 17.85 43.19 17.85 43.7 14.03 44.52 14.03 45.08 17.85 45.09 17.85 45.55 14.03 46.4 14.03 45.62 20.05 44.66 20.05 44.07 16.33 44.06 16.33"/><path class="cls-1" d="M47.59,18.14h.8L48,15.73h0Zm-1.27,1.91,1.13-6h1.16l1.14,6h-1L48.53,19H47.45l-.17,1.1Z"/><polygon class="cls-1" points="49.61 14.03 52.3 14.03 52.3 14.86 51.46 14.86 51.46 20.05 50.44 20.05 50.44 14.86 49.61 14.86 49.61 14.03"/><polygon class="cls-1" points="52.77 14.03 55.18 14.03 55.18 14.86 53.78 14.86 53.78 16.58 54.78 16.58 54.78 17.39 53.78 17.39 53.78 19.22 55.18 19.22 55.18 20.05 52.77 20.05 52.77 14.03"/><path class="cls-1" d="M56.73,14.86v1.87h.33a.44.44,0,0,0,.5-.5v-.88c0-.33-.15-.49-.5-.49Zm0,2.43v2.76h-1V14h1.47c1,0,1.39.51,1.39,1.35v.77c0,.65-.23,1-.81,1.17l1,2.73H57.68Z"/></svg>