<svg id="Layer_1" data-name="Layer 1" xmlns="http://www.w3.org/2000/svg" viewBox="0 0 71 71"><defs><style>.cls-1{fill:#fff;}</style></defs><title>SDGtest</title><rect class="cls-1" x="26.98" y="47.92" width="2.42" height="5.51" rx="0.16"/><path class="cls-1" d="M52.32,55.66H17.69a.16.16,0,0,0-.16.16v2.12a.16.16,0,0,0,.16.16H52.32a.16.16,0,0,0,.16-.16V55.82a.16.16,0,0,0-.16-.16"/><path class="cls-1" d="M52.32,59.87H17.69a.16.16,0,0,0-.16.15v2.13a.16.16,0,0,0,.16.15H52.32a.16.16,0,0,0,.16-.15V60a.16.16,0,0,0-.16-.15"/><path class="cls-1" d="M45.73,42.17a5.08,5.08,0,0,0-3-1.13A4,4,0,0,0,40,42.22a.32.32,0,0,0-.1.22v.19a.31.31,0,0,0,.1.24.28.28,0,0,0,.25.05h.06a.45.45,0,0,0,.17-.11,2.86,2.86,0,0,1,1.39-.29A5.23,5.23,0,0,1,45.4,44l0,0a.43.43,0,0,0,.3.13A.45.45,0,0,0,46,44l0,0a5.25,5.25,0,0,1,3.58-1.5A2.82,2.82,0,0,1,51,42.8a.4.4,0,0,0,.19.11.4.4,0,0,0,.2,0,.29.29,0,0,0,.22-.28v-.17a.31.31,0,0,0-.09-.22A4,4,0,0,0,48.72,41a5.13,5.13,0,0,0-3,1.13"/><path class="cls-1" d="M43.58,28.37a.3.3,0,0,0-.15.18l0,.11a.3.3,0,0,0,0,.26.26.26,0,0,0,.22.12s0,0,0,0a.33.33,0,0,0,.17,0,.73.73,0,0,1,.21,0,3,3,0,0,1,2.47,1.61v0a.32.32,0,0,0,.23.18l.11,0a.47.47,0,0,0,.17,0l0,0a3.51,3.51,0,0,1,1.55-.38,2.35,2.35,0,0,1,1.58.51.49.49,0,0,0,.12.13l.11,0h.08a.35.35,0,0,0,.14,0,.28.28,0,0,0,.14-.18l0-.1a.29.29,0,0,0,0-.09.33.33,0,0,0,0-.14,2.62,2.62,0,0,0-2.36-1.42,3.61,3.61,0,0,0-1.24.24A3,3,0,0,0,44.88,28a2.91,2.91,0,0,0-1.3.33"/><path class="cls-1" d="M36.27,33.69v.16a.3.3,0,0,0,.14.23.29.29,0,0,0,.24,0l.05,0a.33.33,0,0,0,.15-.11,2.57,2.57,0,0,1,1.32-.3,4.29,4.29,0,0,1,2.74,1l0,0a.39.39,0,0,0,.27.1h0a.37.37,0,0,0,.28-.13l0,0a4.18,4.18,0,0,1,3-1.41,2.08,2.08,0,0,1,.9.17.44.44,0,0,0,.18.09.21.21,0,0,0,.12,0l.08,0a.28.28,0,0,0,.19-.29v-.14a.36.36,0,0,0-.11-.21A3.39,3.39,0,0,0,43.71,32a4.18,4.18,0,0,0-2.6,1.07,4.34,4.34,0,0,0-2.31-.76,3.28,3.28,0,0,0-2.45,1.13.27.27,0,0,0-.08.22"/><path class="cls-1" d="M18.74,36.48a3.75,3.75,0,0,1,3.75-3.76h.24a5.08,5.08,0,0,1,10.14.39,5,5,0,0,1-.51,2.21,5.68,5.68,0,0,1-1.23,11.22l-7.58,0a4,4,0,0,1-2.92-6.78,3.73,3.73,0,0,1-1.89-3.25"/><polygon class="cls-1" points="4.93 8.27 4.93 10.8 4.95 10.8 6.64 9.04 6.67 9.04 6.67 20.05 9.09 20.05 9.09 5.66 7.15 5.66 4.93 8.27"/><path class="cls-1" d="M14.83,10.22a2.17,2.17,0,0,0-2,1h0V7.64h4.15v-2H10.57v8.11h2.21v-.32c0-.85.38-1.32,1.05-1.32s1.05.51,1.05,1.3v3.48c0,.76-.28,1.29-1,1.29s-1.13-.55-1.13-1.4V15h-2.2v1.63c0,2.19.87,3.59,3.33,3.59s3.43-1.3,3.43-3.29V13.41c0-2.27-1.16-3.19-2.46-3.19"/><polygon class="cls-1" points="22.49 5.61 23.5 5.61 23.5 10.8 24.71 10.8 24.71 11.62 22.49 11.62 22.49 5.61"/><rect class="cls-1" x="25.17" y="5.61" width="1.01" height="6.01"/><polygon class="cls-1" points="26.76 5.61 29.13 5.61 29.13 6.44 27.78 6.44 27.78 8.16 28.79 8.16 28.79 8.97 27.78 8.97 27.78 11.62 26.76 11.62 26.76 5.61"/><polygon class="cls-1" points="29.57 5.61 31.99 5.61 31.99 6.44 30.59 6.44 30.59 8.16 31.59 8.16 31.59 8.97 30.59 8.97 30.59 10.8 31.99 10.8 31.99 11.62 29.57 11.62 29.57 5.61"/><path class="cls-1" d="M24.54,18.65V15.43c0-.37-.16-.62-.52-.62s-.52.25-.52.62v3.22c0,.37.16.62.52.62s.52-.25.52-.62m-2.05-.16v-2.9a1.53,1.53,0,1,1,3.06,0v2.9a1.53,1.53,0,1,1-3.06,0"/><polygon class="cls-1" points="26.98 16.27 26.98 20.05 26.13 20.05 26.13 14.03 27.12 14.03 28.21 17.48 28.21 14.03 29.05 14.03 29.05 20.05 28.17 20.05 26.98 16.27"/><polygon class="cls-1" points="31.79 14.03 32.8 14.03 32.8 19.22 34 19.22 34 20.05 31.79 20.05 31.79 14.03"/><path class="cls-1" d="M35.57,18.14h.81L36,15.73h0ZM34.3,20.05l1.14-6h1.15l1.14,6h-1L36.51,19H35.44l-.18,1.1Z"/><polygon class="cls-1" points="39 16.27 39 20.05 38.15 20.05 38.15 14.03 39.14 14.03 40.23 17.48 40.23 14.03 41.08 14.03 41.08 20.05 40.19 20.05 39 16.27"/><path class="cls-1" d="M43.09,19.22a.54.54,0,0,0,.58-.61V15.46a.53.53,0,0,0-.58-.6h-.43v4.36Zm1.59-3.57v2.78c0,.92-.39,1.62-1.47,1.62H41.65V14h1.56c1.08,0,1.47.69,1.47,1.62"/></svg>