<svg id="Layer_1" data-name="Layer 1" xmlns="http://www.w3.org/2000/svg" viewBox="0 0 71 71"><defs><style>.cls-1{fill:#fff;}</style></defs><title>SDGtest</title><path class="cls-1" d="M42.54,43.79a9.27,9.27,0,0,0,3-6.81,9.39,9.39,0,0,0-.08-1.19,7.41,7.41,0,0,1,4.19,12.86,9.32,9.32,0,0,0-7.09-4.86M48.84,53a7.42,7.42,0,0,1-7.41,7.42,7.31,7.31,0,0,1-3.66-1,9.23,9.23,0,0,0,2.55-6.38,8.74,8.74,0,0,0-.18-1.78,9.17,9.17,0,0,0,4.5,1.17,9.35,9.35,0,0,0,4.06-.93A8,8,0,0,1,48.84,53m-25.23.06a7.12,7.12,0,0,1,.16-1.54,9.24,9.24,0,0,0,8.52-.23A9.62,9.62,0,0,0,32.13,53a9.26,9.26,0,0,0,2.63,6.46,7.4,7.4,0,0,1-11.15-6.4m-3.22-9.9A7.43,7.43,0,0,1,27,35.79,9.39,9.39,0,0,0,26.94,37a9.28,9.28,0,0,0,3,6.86,9.31,9.31,0,0,0-7.12,4.83,7.38,7.38,0,0,1-2.46-5.5M36.23,29.56A7.43,7.43,0,0,1,43,34a9.32,9.32,0,0,0-6.8,5.22A9.35,9.35,0,0,0,29.42,34a7.45,7.45,0,0,1,6.81-4.46M38,46.44a7.4,7.4,0,0,1,10.09,3.3A7.4,7.4,0,0,1,38,46.44m-3.56.05a7.38,7.38,0,0,1-10,3.26A7.42,7.42,0,0,1,31,45.65a7.34,7.34,0,0,1,3.4.84M28.9,35.84a7.42,7.42,0,0,1,6.33,7.33,7.11,7.11,0,0,1-.1,1.14A7.42,7.42,0,0,1,28.81,37a7.11,7.11,0,0,1,.09-1.14m7.36,22.48a7.38,7.38,0,0,1-.07-10.56,7.38,7.38,0,0,1,.07,10.56M43.65,37a7.43,7.43,0,0,1-6.33,7.33,7.11,7.11,0,0,1-.1-1.14,7.43,7.43,0,0,1,6.33-7.33,7.11,7.11,0,0,1,.1,1.14m10.28,6.19a9.29,9.29,0,0,0-9-9.28,9.28,9.28,0,0,0-17.51,0,9.28,9.28,0,0,0-5.37,16.6,9.57,9.57,0,0,0-.36,2.58A9.3,9.3,0,0,0,31,62.36a9.19,9.19,0,0,0,5.24-1.63A9.27,9.27,0,0,0,50.36,50.48a9.28,9.28,0,0,0,3.57-7.31"/><polygon class="cls-1" points="10.81 5.89 10.81 20.27 8.4 20.27 8.4 9.26 8.37 9.26 6.68 11.02 6.66 11.02 6.66 8.49 8.88 5.89 10.81 5.89"/><polygon class="cls-1" points="11.92 5.89 17.98 5.89 17.98 8.11 14.82 20.27 12.43 20.27 15.65 7.86 11.92 7.86 11.92 5.89"/><path class="cls-1" d="M24.32,6.65V9h.38c.34,0,.49-.17.49-.5V7.14a.43.43,0,0,0-.49-.49Zm-1-.82h1.5c1,0,1.4.5,1.4,1.35V8.44c0,.85-.38,1.36-1.4,1.36h-.49v2h-1Z"/><path class="cls-1" d="M27.48,9.93h.81l-.4-2.41h0Zm-1.27,1.91,1.14-6H28.5l1.15,6h-1l-.19-1.1H27.35l-.18,1.1Z"/><path class="cls-1" d="M31.07,6.65V8.52h.34c.35,0,.5-.17.5-.49V7.14c0-.33-.15-.49-.5-.49Zm0,2.43v2.76h-1v-6h1.47c1,0,1.4.5,1.4,1.35V8a1,1,0,0,1-.81,1.16l1,2.73H32Z"/><polygon class="cls-1" points="33.27 5.83 35.96 5.83 35.96 6.65 35.12 6.65 35.12 11.84 34.1 11.84 34.1 6.65 33.27 6.65 33.27 5.83"/><polygon class="cls-1" points="37.28 8.06 37.28 11.84 36.43 11.84 36.43 5.83 37.42 5.83 38.51 9.28 38.51 5.83 39.35 5.83 39.35 11.84 38.47 11.84 37.28 8.06"/><polygon class="cls-1" points="39.93 5.83 42.34 5.83 42.34 6.65 40.94 6.65 40.94 8.37 41.94 8.37 41.94 9.19 40.94 9.19 40.94 11.02 42.34 11.02 42.34 11.84 39.93 11.84 39.93 5.83"/><path class="cls-1" d="M43.89,6.65V8.52h.34a.44.44,0,0,0,.5-.49V7.14c0-.33-.16-.49-.5-.49Zm0,2.43v2.76h-1v-6h1.47c1,0,1.4.5,1.4,1.35V8a1,1,0,0,1-.81,1.16l1,2.73H44.84Z"/><path class="cls-1" d="M46.2,10.55V9.74h.94v.82c0,.34.15.54.49.54s.47-.22.47-.54v-.23a1.1,1.1,0,0,0-.46-.85l-.59-.59a2,2,0,0,1-.84-1.61v-.2a1.25,1.25,0,0,1,1.41-1.32c1,0,1.41.49,1.41,1.36v.49h-.92V7.09c0-.35-.16-.52-.48-.52a.45.45,0,0,0-.48.5v.12c0,.34.19.53.48.82l.65.64a2,2,0,0,1,.82,1.56v.29a1.31,1.31,0,0,1-1.48,1.41,1.25,1.25,0,0,1-1.42-1.36"/><polygon class="cls-1" points="51.61 9.19 50.64 9.19 50.64 11.84 49.63 11.84 49.63 5.83 50.64 5.83 50.64 8.37 51.61 8.37 51.61 5.83 52.63 5.83 52.63 11.84 51.61 11.84 51.61 9.19"/><rect class="cls-1" x="53.21" y="5.83" width="1.01" height="6.01"/><path class="cls-1" d="M55.81,6.65V9h.38c.34,0,.49-.17.49-.5V7.14a.43.43,0,0,0-.49-.49Zm-1-.82h1.5c1,0,1.4.5,1.4,1.35V8.44c0,.85-.38,1.36-1.4,1.36h-.49v2h-1Z"/><path class="cls-1" d="M58.16,10.55V9.74h.94v.82c0,.34.15.54.5.54s.46-.22.46-.54v-.23a1.09,1.09,0,0,0-.45-.85L59,8.89a2,2,0,0,1-.85-1.61v-.2a1.25,1.25,0,0,1,1.42-1.32c1,0,1.41.49,1.41,1.36v.49h-.92V7.09c0-.35-.16-.52-.48-.52a.45.45,0,0,0-.48.5v.12c0,.34.19.53.48.82l.65.64a2,2,0,0,1,.81,1.56v.29a1.3,1.3,0,0,1-1.47,1.41,1.25,1.25,0,0,1-1.43-1.36"/><polygon class="cls-1" points="23.32 14.25 25.68 14.25 25.68 15.07 24.32 15.07 24.32 16.8 25.34 16.8 25.34 17.61 24.32 17.61 24.32 20.26 23.32 20.26 23.32 14.25"/><path class="cls-1" d="M28.08,18.87V15.64c0-.36-.15-.62-.52-.62s-.51.26-.51.62v3.23c0,.36.16.62.51.62s.52-.26.52-.62m-2-.16V15.8a1.53,1.53,0,1,1,3.06,0v2.91a1.53,1.53,0,1,1-3.06,0"/><path class="cls-1" d="M30.68,15.08V17H31a.44.44,0,0,0,.5-.5v-.89c0-.33-.15-.48-.5-.48Zm0,2.42v2.76h-1v-6h1.47c1,0,1.4.5,1.4,1.35v.77c0,.65-.24,1-.81,1.16l1,2.73H31.63Z"/><polygon class="cls-1" points="34.49 14.25 37.18 14.25 37.18 15.07 36.34 15.07 36.34 20.26 35.32 20.26 35.32 15.07 34.49 15.07 34.49 14.25"/><polygon class="cls-1" points="39.63 17.61 38.66 17.61 38.66 20.26 37.65 20.26 37.65 14.25 38.66 14.25 38.66 16.8 39.63 16.8 39.63 14.25 40.65 14.25 40.65 20.26 39.63 20.26 39.63 17.61"/><polygon class="cls-1" points="41.23 14.25 43.64 14.25 43.64 15.07 42.24 15.07 42.24 16.8 43.24 16.8 43.24 17.61 42.24 17.61 42.24 19.44 43.64 19.44 43.64 20.26 41.23 20.26 41.23 14.25"/><path class="cls-1" d="M47.23,17.05h1.43v3.21h-.72v-.65a.92.92,0,0,1-1,.72c-.87,0-1.27-.69-1.27-1.62V15.8a1.42,1.42,0,0,1,1.52-1.62c1.11,0,1.44.62,1.44,1.51v.53h-.92v-.61c0-.38-.14-.59-.5-.59s-.53.26-.53.62v3.23c0,.36.15.62.5.62s.49-.19.49-.58V17.85h-.47Z"/><path class="cls-1" d="M51.29,18.87V15.64c0-.36-.16-.62-.53-.62s-.51.26-.51.62v3.23c0,.36.16.62.51.62s.53-.26.53-.62m-2-.16V15.8a1.53,1.53,0,1,1,3.06,0v2.91a1.53,1.53,0,1,1-3.06,0"/><path class="cls-1" d="M53.85,18.36h.8l-.39-2.42h0Zm-1.27,1.9,1.13-6h1.16l1.14,6H55l-.18-1.1H53.71l-.17,1.1Z"/><polygon class="cls-1" points="56.43 14.25 57.44 14.25 57.44 19.44 58.64 19.44 58.64 20.26 56.43 20.26 56.43 14.25"/><path class="cls-1" d="M59,19v-.81H60V19c0,.34.15.54.49.54s.47-.22.47-.54v-.23a1.11,1.11,0,0,0-.46-.85l-.59-.59A2,2,0,0,1,59,15.7v-.2a1.25,1.25,0,0,1,1.42-1.32c1,0,1.4.5,1.4,1.37V16h-.92v-.52c0-.35-.16-.51-.48-.51a.43.43,0,0,0-.47.49v.13c0,.33.18.53.47.81l.65.64a2,2,0,0,1,.82,1.56v.29a1.3,1.3,0,0,1-1.47,1.41A1.25,1.25,0,0,1,59,19"/></svg>