<svg id="Layer_1" data-name="Layer 1" xmlns="http://www.w3.org/2000/svg" viewBox="0 0 71 71"><defs><style>.cls-1{fill:#fff;}</style></defs><title>SDGtest</title><path class="cls-1" d="M28.08,60.44v1.05a.49.49,0,0,0,.47.46h11.8a.48.48,0,0,0,.47-.48h0V60.33A18.35,18.35,0,0,0,53.5,46.25v0a.15.15,0,0,0,0-.07.47.47,0,0,0-.48-.47H15.53a.48.48,0,0,0-.48.47l0,.22a18.37,18.37,0,0,0,13,14.08"/><path class="cls-1" d="M40.81,29.66c-.16.22-3.78,5.44.08,9.66C42.66,41.25,42.5,43,42,44.12h2.47c.51-1.71.3-3.84-1.71-6-2.84-3.11,0-7.31.08-7.37a.93.93,0,0,0-.4-1.39,1.32,1.32,0,0,0-1.63.34"/><path class="cls-1" d="M34.54,44.12H37c.5-1.71.29-3.84-1.72-6-2.85-3.11,0-7.31.08-7.38A.93.93,0,0,0,35,29.32a1.32,1.32,0,0,0-1.62.34c-.16.22-3.78,5.44.08,9.66C35.2,41.25,35,43,34.54,44.12"/><path class="cls-1" d="M25.89,29.66c-.16.22-3.78,5.44.08,9.66,1.77,1.93,1.61,3.64,1.11,4.8h2.47a6.09,6.09,0,0,0-1.71-6c-2.85-3.11,0-7.31.08-7.38a.93.93,0,0,0-.41-1.38,1.3,1.3,0,0,0-1.62.34"/><path class="cls-1" d="M13.33,18.22h-4v-.68a2.75,2.75,0,0,1,1-2.21l1.55-1.63a4.51,4.51,0,0,0,1.52-3.63V8.67c0-2-1-3-3.15-3S7.09,6.76,7.09,8.78v1.74H9.3V8.72c0-.87.42-1.13.93-1.13s.87.19.87,1.08V9.86a2.83,2.83,0,0,1-.89,2.48L8.85,13.79c-1.31,1.4-1.8,2.33-1.8,3.75v2.65h6.28Z"/><polygon class="cls-1" points="21.34 11.16 22.88 11.16 22.88 11.99 20.29 11.99 20.29 11.16 21.87 6.8 20.45 6.8 20.45 5.98 22.94 5.98 22.94 6.8 21.34 11.16"/><polygon class="cls-1" points="23.47 5.98 25.88 5.98 25.88 6.8 24.48 6.8 24.48 8.52 25.48 8.52 25.48 9.34 24.48 9.34 24.48 11.16 25.88 11.16 25.88 11.99 23.47 11.99 23.47 5.98"/><path class="cls-1" d="M27.43,6.8V8.67h.34c.35,0,.5-.17.5-.49V7.29c0-.33-.15-.49-.5-.49Zm0,2.43V12h-1V6h1.47c1,0,1.4.5,1.4,1.34V8.1a1,1,0,0,1-.81,1.16l1,2.73H28.38Z"/><path class="cls-1" d="M31.88,10.6V7.37c0-.36-.16-.62-.52-.62s-.51.26-.51.62V10.6c0,.36.16.62.51.62s.52-.26.52-.62m-2.05-.16V7.53a1.53,1.53,0,1,1,3.06,0v2.91a1.53,1.53,0,1,1-3.06,0"/><polygon class="cls-1" points="22.34 17.76 21.37 17.76 21.37 20.41 20.36 20.41 20.36 14.4 21.37 14.4 21.37 16.94 22.34 16.94 22.34 14.4 23.36 14.4 23.36 20.41 22.34 20.41 22.34 17.76"/><path class="cls-1" d="M26.87,14.4V19c0,.93-.39,1.53-1.42,1.53A1.35,1.35,0,0,1,23.94,19V14.4h1V19c0,.36.14.6.5.6s.49-.24.49-.6V14.4Z"/><polygon class="cls-1" points="28.3 16.63 28.3 20.41 27.45 20.41 27.45 14.4 28.44 14.4 29.53 17.85 29.53 14.4 30.38 14.4 30.38 20.41 29.49 20.41 28.3 16.63"/><path class="cls-1" d="M32.48,17.2h1.43v3.21h-.72v-.66a.91.91,0,0,1-1,.73c-.87,0-1.27-.69-1.27-1.62V16a1.42,1.42,0,0,1,1.52-1.62c1.12,0,1.44.62,1.44,1.5v.54H33v-.61c0-.38-.14-.59-.5-.59s-.53.26-.53.62V19c0,.36.15.62.5.62s.5-.19.5-.58V18h-.48Z"/><polygon class="cls-1" points="34.49 14.4 36.9 14.4 36.9 15.22 35.5 15.22 35.5 16.94 36.5 16.94 36.5 17.76 35.5 17.76 35.5 19.59 36.9 19.59 36.9 20.41 34.49 20.41 34.49 14.4"/><path class="cls-1" d="M38.45,15.22v1.87h.34a.43.43,0,0,0,.49-.49v-.89a.43.43,0,0,0-.49-.49Zm0,2.43v2.76h-1v-6h1.47c1,0,1.4.5,1.4,1.35v.77a1,1,0,0,1-.81,1.16l1,2.73H39.4Z"/></svg>