<svg id="Layer_1" data-name="Layer 1" xmlns="http://www.w3.org/2000/svg" viewBox="0 0 71 71"><defs><style>.cls-1{fill:#fff;}</style></defs><title>SDGtest</title><path class="cls-1" d="M59.51,44.41a3.35,3.35,0,0,0-3.24-3.63c-1,0-2.15,1.07-2.79,1.72-.64-.65-1.74-1.72-2.71-1.72a3.4,3.4,0,0,0-3.32,3.63,3.66,3.66,0,0,0,1,2.57l5,5,5-5h0a3.65,3.65,0,0,0,1-2.57"/><path class="cls-1" d="M38.22,60.17h0a.84.84,0,0,1-.76-.68l-2.54-14.8L31,51.83a.82.82,0,0,1-1.53-.28L27.86,40.14l-3,6.71a.82.82,0,0,1-.75.49H12.5a.82.82,0,0,1,0-1.64H23.58l3.93-8.83a.83.83,0,0,1,.87-.48.82.82,0,0,1,.7.7l1.68,11.77,3.79-7a.83.83,0,0,1,1.54.25l2.35,13.7L47,27.3a.83.83,0,0,1,1.53-.12l4.51,9.35a.82.82,0,0,1-1.48.71L48,29.79,39,59.58a.83.83,0,0,1-.79.59"/><path class="cls-1" d="M10.71,20.39c2.44,0,3.5-1.3,3.5-3.29V15a2.2,2.2,0,0,0-1.78-2.44,2.3,2.3,0,0,0,1.65-2.33V9c0-2-1-3.28-3.2-3.28-2.5,0-3.37,1.48-3.37,3.6v1.28h2.2V9.08c0-.89.28-1.4,1-1.4s1,.51,1,1.3v1.54a1.13,1.13,0,0,1-1.29,1.17H9.58v1.85h1c.85,0,1.19.4,1.19,1.16v2.38c0,.76-.34,1.29-1.08,1.29S9.58,17.82,9.58,17v-2H7.38V16.8c0,2.19.87,3.59,3.33,3.59"/><path class="cls-1" d="M22.57,8.78H24V12h-.73v-.66a.9.9,0,0,1-1,.73c-.87,0-1.27-.69-1.27-1.62V7.53a1.42,1.42,0,0,1,1.52-1.62c1.11,0,1.44.62,1.44,1.5V8h-.92V7.34c0-.38-.14-.59-.51-.59s-.52.26-.52.62V10.6c0,.36.15.62.5.62s.49-.19.49-.58V9.58h-.48Z"/><path class="cls-1" d="M26.63,10.6V7.37c0-.36-.15-.62-.52-.62s-.51.26-.51.62V10.6c0,.36.16.62.51.62s.52-.26.52-.62m-2-.16V7.53a1.53,1.53,0,1,1,3.06,0v2.91a1.53,1.53,0,1,1-3.06,0"/><path class="cls-1" d="M30.27,10.6V7.37c0-.36-.16-.62-.52-.62s-.52.26-.52.62V10.6c0,.36.16.62.52.62s.52-.26.52-.62m-2.05-.16V7.53a1.53,1.53,0,1,1,3.06,0v2.91a1.53,1.53,0,1,1-3.06,0"/><path class="cls-1" d="M33.29,11.17c.42,0,.58-.25.58-.62V7.41c0-.36-.16-.61-.58-.61h-.42v4.37Zm1.59-3.58v2.79c0,.92-.38,1.61-1.46,1.61H31.86V6h1.56c1.08,0,1.46.68,1.46,1.61"/><polygon class="cls-1" points="38.96 9.34 37.99 9.34 37.99 11.99 36.98 11.99 36.98 5.98 37.99 5.98 37.99 8.52 38.96 8.52 38.96 5.98 39.98 5.98 39.98 11.99 38.96 11.99 38.96 9.34"/><polygon class="cls-1" points="40.56 5.98 42.97 5.98 42.97 6.8 41.57 6.8 41.57 8.52 42.57 8.52 42.57 9.34 41.57 9.34 41.57 11.17 42.97 11.17 42.97 11.99 40.56 11.99 40.56 5.98"/><path class="cls-1" d="M44.62,10.08h.8L45,7.67h0ZM43.35,12l1.14-6h1.15l1.14,6h-1l-.18-1.1H44.49L44.31,12Z"/><polygon class="cls-1" points="47.2 5.98 48.21 5.98 48.21 11.17 49.41 11.17 49.41 11.99 47.2 11.99 47.2 5.98"/><polygon class="cls-1" points="49.18 5.98 51.87 5.98 51.87 6.8 51.04 6.8 51.04 11.99 50.02 11.99 50.02 6.8 49.18 6.8 49.18 5.98"/><polygon class="cls-1" points="54.33 9.34 53.35 9.34 53.35 11.99 52.34 11.99 52.34 5.98 53.35 5.98 53.35 8.52 54.33 8.52 54.33 5.98 55.34 5.98 55.34 11.99 54.33 11.99 54.33 9.34"/><path class="cls-1" d="M22.16,18.51H23l-.39-2.42h0Zm-1.27,1.9,1.14-6h1.15l1.14,6h-1l-.18-1.1H22l-.18,1.1Z"/><polygon class="cls-1" points="25.59 16.64 25.59 20.41 24.74 20.41 24.74 14.4 25.73 14.4 26.82 17.85 26.82 14.4 27.66 14.4 27.66 20.41 26.78 20.41 25.59 16.64"/><path class="cls-1" d="M29.68,19.59c.41,0,.57-.25.57-.61V15.83c0-.36-.16-.61-.57-.61h-.43v4.37ZM31.26,16V18.8c0,.92-.38,1.61-1.46,1.61H28.24v-6H29.8c1.08,0,1.46.68,1.46,1.61"/><polygon class="cls-1" points="35.54 16.7 34.97 20.41 34.02 20.41 33.22 14.4 34.19 14.4 34.66 18.21 34.67 18.21 35.18 14.4 36 14.4 36.56 18.21 36.57 18.21 37.03 14.4 37.88 14.4 37.1 20.41 36.14 20.41 35.55 16.7 35.54 16.7"/><polygon class="cls-1" points="38.31 14.4 40.73 14.4 40.73 15.22 39.33 15.22 39.33 16.94 40.33 16.94 40.33 17.76 39.33 17.76 39.33 19.59 40.73 19.59 40.73 20.41 38.31 20.41 38.31 14.4"/><polygon class="cls-1" points="41.27 14.4 42.28 14.4 42.28 19.59 43.48 19.59 43.48 20.41 41.27 20.41 41.27 14.4"/><polygon class="cls-1" points="43.94 14.4 44.95 14.4 44.95 19.59 46.16 19.59 46.16 20.41 43.94 20.41 43.94 14.4"/><rect class="cls-1" x="46.03" y="17.21" width="1.42" height="0.81"/><path class="cls-1" d="M49,17.71v1.88h.44a.44.44,0,0,0,.5-.49v-.91c0-.31-.15-.48-.51-.48Zm0-.77h.36c.32,0,.47-.17.47-.49v-.74c0-.33-.15-.49-.48-.49H49ZM48,14.4h1.46c1,0,1.35.47,1.35,1.32v.61a.88.88,0,0,1-.6,1,.91.91,0,0,1,.75,1v.8c0,.85-.38,1.32-1.39,1.32H48Z"/><polygon class="cls-1" points="51.43 14.4 53.84 14.4 53.84 15.22 52.44 15.22 52.44 16.94 53.44 16.94 53.44 17.76 52.44 17.76 52.44 19.59 53.84 19.59 53.84 20.41 51.43 20.41 51.43 14.4"/><rect class="cls-1" x="54.38" y="14.4" width="1.01" height="6.01"/><polygon class="cls-1" points="56.83 16.64 56.83 20.41 55.97 20.41 55.97 14.4 56.97 14.4 58.06 17.85 58.06 14.4 58.9 14.4 58.9 20.41 58.01 20.41 56.83 16.64"/><path class="cls-1" d="M61,17.2h1.44v3.21h-.73v-.65a.91.91,0,0,1-1,.72c-.87,0-1.27-.69-1.27-1.62V16A1.43,1.43,0,0,1,61,14.33c1.12,0,1.45.62,1.45,1.51v.53h-.92v-.61c0-.38-.15-.59-.51-.59s-.52.26-.52.62V19c0,.36.15.62.49.62s.5-.19.5-.58V18H61Z"/></svg>