<svg id="Layer_1" data-name="Layer 1" xmlns="http://www.w3.org/2000/svg" viewBox="0 0 71 71"><defs><style>.cls-1{fill:#fff;}</style></defs><title>SDGtest</title><polygon class="cls-1" points="31.77 38.08 18.98 30.69 18.98 54.59 31.77 58.45 31.77 38.08"/><polygon class="cls-1" points="33.18 38.13 33.18 58.46 46.05 54.59 46.05 30.69 33.18 38.13"/><polygon class="cls-1" points="53.44 54.17 53.07 54.17 54.58 59.46 56.09 54.17 55.72 54.17 56.09 54.17 56.09 32.91 55.72 32.91 55.34 32.91 54.94 32.91 54.19 32.91 53.82 32.91 53.44 32.91 53.07 32.91 53.07 54.17 53.44 54.17"/><polygon class="cls-1" points="48.8 31.72 47.43 30.64 47.43 55.24 33.21 59.83 32.56 59.83 32.43 59.83 31.77 59.83 17.62 55.88 17.62 30.64 16.25 31.72 16.25 56.84 31.7 61.12 32.43 61.12 32.56 61.12 33.28 61.12 47.54 56.59 48.8 56.22 48.8 31.72"/><path class="cls-1" d="M56.09,30.09a1.51,1.51,0,1,0-3,0v1.63h3Z"/><path class="cls-1" d="M9.17,16l2.16-5.92h0V16Zm2.14,4.22H13.6V17.86h1V16h-1V5.81H11.23L7.05,16.37v1.49h4.26Z"/><path class="cls-1" d="M23.2,10.65V7.37c0-.36-.16-.62-.52-.62s-.51.26-.51.62v3.28c0,.35.16.62.51.62s.52-.27.52-.62m-.89,1.75V12a1.38,1.38,0,0,1-1.15-1.55V7.53a1.53,1.53,0,1,1,3.05,0v2.91a1.46,1.46,0,0,1-.74,1.42l.74.14v.75Z"/><path class="cls-1" d="M27.72,6v4.55c0,.93-.39,1.53-1.42,1.53a1.35,1.35,0,0,1-1.51-1.53V6h1v4.64c0,.36.14.6.5.6s.49-.24.49-.6V6Z"/><path class="cls-1" d="M29.28,10.08h.8l-.4-2.41h0ZM28,12l1.13-6H30.3l1.14,6h-1l-.18-1.1H29.14L29,12Z"/><polygon class="cls-1" points="31.86 5.98 32.87 5.98 32.87 11.16 34.07 11.16 34.07 11.99 31.86 11.99 31.86 5.98"/><rect class="cls-1" x="34.53" y="5.98" width="1.01" height="6.01"/><polygon class="cls-1" points="36.01 5.98 38.7 5.98 38.7 6.8 37.87 6.8 37.87 11.99 36.85 11.99 36.85 6.8 36.01 6.8 36.01 5.98"/><polygon class="cls-1" points="41.14 9.7 41.14 11.99 40.13 11.99 40.13 9.7 39 5.98 40.06 5.98 40.67 8.26 40.68 8.26 41.29 5.98 42.26 5.98 41.14 9.7"/><polygon class="cls-1" points="21.16 14.4 23.57 14.4 23.57 15.22 22.16 15.22 22.16 16.94 23.17 16.94 23.17 17.76 22.16 17.76 22.16 19.59 23.57 19.59 23.57 20.41 21.16 20.41 21.16 14.4"/><path class="cls-1" d="M25.54,19.59c.42,0,.58-.25.58-.62V15.83c0-.36-.16-.61-.58-.61h-.42v4.37ZM27.13,16V18.8c0,.92-.38,1.61-1.46,1.61H24.11v-6h1.56c1.08,0,1.46.68,1.46,1.61"/><path class="cls-1" d="M30.64,14.4V19c0,.93-.4,1.53-1.43,1.53A1.35,1.35,0,0,1,27.71,19V14.4h1V19c0,.36.14.6.49.6s.5-.24.5-.6V14.4Z"/><path class="cls-1" d="M31.22,18.86V16c0-.94.44-1.62,1.5-1.62s1.43.62,1.43,1.5v.71h-.92v-.78c0-.38-.12-.59-.49-.59s-.51.26-.51.62V19c0,.36.15.62.51.62s.49-.23.49-.59V18h.92v1c0,.86-.35,1.5-1.43,1.5a1.42,1.42,0,0,1-1.5-1.62"/><path class="cls-1" d="M35.72,18.5h.81l-.4-2.41h0Zm-1.27,1.91,1.14-6h1.15l1.14,6h-1l-.19-1.1H35.59l-.18,1.1Z"/><polygon class="cls-1" points="37.74 14.4 40.43 14.4 40.43 15.22 39.59 15.22 39.59 20.41 38.58 20.41 38.58 15.22 37.74 15.22 37.74 14.4"/><rect class="cls-1" x="40.9" y="14.4" width="1.01" height="6.01"/><path class="cls-1" d="M44.54,19V15.79c0-.36-.16-.62-.52-.62s-.52.26-.52.62V19c0,.36.16.62.52.62s.52-.26.52-.62m-2-.16V16a1.53,1.53,0,1,1,3.06,0v2.91a1.53,1.53,0,1,1-3.06,0"/><polygon class="cls-1" points="46.98 16.63 46.98 20.41 46.13 20.41 46.13 14.4 47.12 14.4 48.21 17.85 48.21 14.4 49.05 14.4 49.05 20.41 48.17 20.41 46.98 16.63"/></svg>