<svg id="Layer_1" data-name="Layer 1" xmlns="http://www.w3.org/2000/svg" viewBox="0 0 71 71"><defs><style>.cls-1{fill:#fff;}</style></defs><title>SDGtest</title><path class="cls-1" d="M34.7,51.6a8.55,8.55,0,1,1,8.55-8.55A8.57,8.57,0,0,1,34.7,51.6M51.11,26.82H42.25a.12.12,0,0,0-.12.12v2.94a.13.13,0,0,0,.12.12h3.53l-3.92,3.92A11.61,11.61,0,1,0,33.2,54.56V58H29.7a.11.11,0,0,0-.11.12v3.15a.11.11,0,0,0,.11.12h3.5v3.34a.11.11,0,0,0,.11.11h3.16a.11.11,0,0,0,.11-.11V61.34h3.5a.11.11,0,0,0,.11-.12V58.07a.11.11,0,0,0-.11-.12h-3.5V54.5a11.6,11.6,0,0,0,7.61-18.13l3.86-3.87v3.3a.11.11,0,0,0,.12.11h2.94a.11.11,0,0,0,.12-.11V26.94a.12.12,0,0,0-.12-.12"/><path class="cls-1" d="M39.92,39.54H29.55a.11.11,0,0,0-.11.1v2.51a.1.1,0,0,0,.11.1H39.92a.1.1,0,0,0,.11-.1V39.64a.11.11,0,0,0-.11-.1"/><path class="cls-1" d="M39.92,44H29.55a.11.11,0,0,0-.11.11v2.51a.11.11,0,0,0,.11.1H39.92a.11.11,0,0,0,.11-.1V44.13a.11.11,0,0,0-.11-.11"/><path class="cls-1" d="M11,10.36a2.18,2.18,0,0,0-2,1h0V7.78H13.1v-2H6.74v8.11h2.2v-.32c0-.85.38-1.32,1.06-1.32s1,.51,1,1.3v3.48c0,.76-.27,1.29-1,1.29s-1.12-.55-1.12-1.4v-1.8H6.69v1.63c0,2.19.87,3.59,3.33,3.59s3.44-1.3,3.44-3.29V13.55c0-2.27-1.17-3.19-2.46-3.19"/><path class="cls-1" d="M21.86,8.87h1.43v3.21h-.72v-.65a.92.92,0,0,1-1,.72c-.87,0-1.27-.69-1.27-1.62V7.62A1.42,1.42,0,0,1,21.85,6c1.11,0,1.44.62,1.44,1.51V8h-.92V7.43c0-.37-.14-.59-.5-.59s-.53.26-.53.63v3.22c0,.37.15.62.5.62s.49-.18.49-.57V9.67h-.47Z"/><polygon class="cls-1" points="23.87 6.07 26.28 6.07 26.28 6.9 24.88 6.9 24.88 8.62 25.88 8.62 25.88 9.43 24.88 9.43 24.88 11.26 26.28 11.26 26.28 12.09 23.87 12.09 23.87 6.07"/><polygon class="cls-1" points="27.67 8.31 27.67 12.08 26.82 12.08 26.82 6.07 27.81 6.07 28.9 9.52 28.9 6.07 29.75 6.07 29.75 12.08 28.86 12.08 27.67 8.31"/><path class="cls-1" d="M31.76,11.26c.41,0,.57-.25.57-.61V7.5c0-.36-.16-.6-.57-.6h-.43v4.36Zm1.59-3.57v2.78c0,.92-.39,1.61-1.47,1.61H30.32v-6h1.56c1.08,0,1.47.68,1.47,1.62"/><polygon class="cls-1" points="33.92 6.07 36.33 6.07 36.33 6.9 34.93 6.9 34.93 8.62 35.93 8.62 35.93 9.43 34.93 9.43 34.93 11.26 36.33 11.26 36.33 12.09 33.92 12.09 33.92 6.07"/><path class="cls-1" d="M37.88,6.9V8.77h.34a.44.44,0,0,0,.5-.5V7.39c0-.33-.15-.49-.5-.49Zm0,2.43v2.75h-1v-6h1.47c1,0,1.4.51,1.4,1.35v.77c0,.65-.23,1-.81,1.16l1,2.73H38.83Z"/><polygon class="cls-1" points="20.33 14.49 22.74 14.49 22.74 15.32 21.34 15.32 21.34 17.04 22.34 17.04 22.34 17.85 21.34 17.85 21.34 19.68 22.74 19.68 22.74 20.51 20.33 20.51 20.33 14.49"/><path class="cls-1" d="M25.24,19.17V15.89c0-.37-.16-.62-.52-.62s-.51.25-.51.62v3.28c0,.35.16.62.51.62s.52-.27.52-.62m-.89,1.74v-.4A1.39,1.39,0,0,1,23.2,19v-2.9a1.53,1.53,0,1,1,3.05,0V19a1.45,1.45,0,0,1-.74,1.42l.74.14v.76Z"/><path class="cls-1" d="M29.77,14.49V19c0,.93-.4,1.54-1.43,1.54A1.36,1.36,0,0,1,26.83,19V14.49h1v4.65c0,.36.14.59.5.59s.49-.23.49-.59V14.49Z"/><path class="cls-1" d="M31.31,18.6h.81l-.4-2.41h0Zm-1.26,1.91,1.13-6h1.15l1.15,6h-1l-.18-1.1H31.18L31,20.51Z"/><polygon class="cls-1" points="33.9 14.49 34.91 14.49 34.91 19.68 36.11 19.68 36.11 20.51 33.9 20.51 33.9 14.49"/><rect class="cls-1" x="36.57" y="14.49" width="1.01" height="6.01"/><polygon class="cls-1" points="38.05 14.49 40.74 14.49 40.74 15.32 39.91 15.32 39.91 20.51 38.89 20.51 38.89 15.32 38.05 15.32 38.05 14.49"/><polygon class="cls-1" points="43.18 18.22 43.18 20.51 42.17 20.51 42.17 18.22 41.04 14.49 42.1 14.49 42.71 16.77 42.72 16.77 43.33 14.49 44.29 14.49 43.18 18.22"/></svg>