<svg id="Layer_1" data-name="Layer 1" xmlns="http://www.w3.org/2000/svg" viewBox="0 0 71 71"><defs><style>.cls-1{fill:#fff;}</style></defs><title>SDGtest</title><path class="cls-1" d="M47.47,34.33a3.25,3.25,0,0,0-2.43.15c-3.2,1.3-5.37,1.76-8.73.71-2.12-.66-4.1-2-6.44-1.21a13.09,13.09,0,0,1-4.76,1.08l-1-5.2H48.2ZM39.3,49.77a4.12,4.12,0,0,1-3.07,1.08,4.13,4.13,0,0,1-3.08-1.08,4.56,4.56,0,0,1-.57-5.56C33,43.43,36,39,36.22,38.6v0c.25.38,3.21,4.83,3.63,5.61a4.56,4.56,0,0,1-.57,5.56m10-20.94a.29.29,0,0,0-.23-.1H23.27a.29.29,0,0,0-.23.1.27.27,0,0,0-.06.24L27.3,55.23a.31.31,0,0,0,.3.26h5.31l.36,4.26H31L36.23,65l5.22-5.21H39.21l.37-4.25H45a.29.29,0,0,0,.29-.26l4-26.16a.3.3,0,0,0-.07-.24"/><path class="cls-1" d="M10.31,14.56c0-.8.39-1.31,1.14-1.31s1.14.51,1.14,1.44v2.49c0,.91-.33,1.43-1.16,1.43s-1.12-.55-1.12-1.43Zm1.12,6C14,20.58,15,19.18,15,17V14.85c0-2.34-.93-3.52-2.66-3.52a2,2,0,0,0-2,1.16h0V9.41c0-.87.28-1.48,1.14-1.48s1.12.51,1.12,1.4v.95h2.2V9.52c0-2.12-.7-3.59-3.36-3.59S7.93,7.55,7.93,9.79v7c0,2.22,1,3.83,3.5,3.83"/><path class="cls-1" d="M21.29,10.68V7.78a1.41,1.41,0,0,1,1.5-1.61c1.11,0,1.42.62,1.42,1.5v.71h-.92V7.59c0-.37-.12-.58-.48-.58s-.52.26-.52.62v3.21c0,.36.15.62.52.62s.48-.23.48-.59V9.77h.92v1c0,.86-.35,1.49-1.42,1.49a1.41,1.41,0,0,1-1.5-1.61"/><polygon class="cls-1" points="24.75 6.24 25.76 6.24 25.76 11.4 26.96 11.4 26.96 12.22 24.75 12.22 24.75 6.24"/><polygon class="cls-1" points="27.42 6.24 29.82 6.24 29.82 7.06 28.42 7.06 28.42 8.77 29.42 8.77 29.42 9.59 28.42 9.59 28.42 11.4 29.82 11.4 29.82 12.22 27.42 12.22 27.42 6.24"/><path class="cls-1" d="M31.46,10.33h.8l-.4-2.4h0ZM30.2,12.22l1.13-6h1.14l1.14,6h-1l-.19-1.09H31.33l-.18,1.09Z"/><polygon class="cls-1" points="34.87 8.46 34.87 12.22 34.03 12.22 34.03 6.24 35.01 6.24 36.1 9.67 36.1 6.24 36.94 6.24 36.94 12.22 36.05 12.22 34.87 8.46"/><polygon class="cls-1" points="40.61 8.53 40.04 12.22 39.1 12.22 38.3 6.24 39.27 6.24 39.73 10.04 39.74 10.04 40.25 6.24 41.06 6.24 41.62 10.04 41.63 10.04 42.09 6.24 42.94 6.24 42.16 12.22 41.21 12.22 40.62 8.53 40.61 8.53"/><path class="cls-1" d="M44.12,10.33h.8l-.4-2.4h0Zm-1.26,1.89,1.12-6h1.15l1.14,6h-1l-.19-1.09H44l-.17,1.09Z"/><polygon class="cls-1" points="46.13 6.24 48.8 6.24 48.8 7.06 47.97 7.06 47.97 12.22 46.96 12.22 46.96 7.06 46.13 7.06 46.13 6.24"/><polygon class="cls-1" points="49.27 6.24 51.67 6.24 51.67 7.06 50.27 7.06 50.27 8.77 51.27 8.77 51.27 9.59 50.27 9.59 50.27 11.4 51.67 11.4 51.67 12.22 49.27 12.22 49.27 6.24"/><path class="cls-1" d="M53.21,7.06V8.92h.34A.43.43,0,0,0,54,8.43V7.55a.43.43,0,0,0-.49-.49Zm0,2.42v2.74h-1v-6h1.46c1,0,1.39.5,1.39,1.34v.77a1,1,0,0,1-.81,1.16l1,2.71H54.15Z"/><path class="cls-1" d="M22.39,18.71h.8l-.39-2.4h0ZM21.13,20.6l1.13-6h1.15l1.13,6h-1l-.18-1.09H22.26l-.18,1.09Z"/><polygon class="cls-1" points="25.8 16.84 25.8 20.6 24.96 20.6 24.96 14.62 25.95 14.62 27.03 18.05 27.03 14.62 27.87 14.62 27.87 20.6 26.99 20.6 25.8 16.84"/><path class="cls-1" d="M29.87,19.78c.41,0,.58-.24.58-.61V16a.53.53,0,0,0-.58-.6h-.42v4.34Zm1.58-3.55V19c0,.91-.38,1.6-1.46,1.6H28.44v-6H30c1.08,0,1.46.68,1.46,1.61"/><path class="cls-1" d="M32.9,19.32v-.81h.93v.82c0,.34.15.53.49.53s.46-.21.46-.53V19.1a1.07,1.07,0,0,0-.45-.84l-.59-.59a2,2,0,0,1-.84-1.6v-.2a1.25,1.25,0,0,1,1.42-1.32c1,0,1.4.49,1.4,1.36v.48H34.8v-.52q0-.51-.48-.51a.44.44,0,0,0-.47.5V16c0,.34.18.53.47.81l.65.64A2,2,0,0,1,35.78,19v.29a1.29,1.29,0,0,1-1.46,1.4,1.24,1.24,0,0,1-1.42-1.35"/><path class="cls-1" d="M37.32,18.71h.81l-.4-2.4h0ZM36.06,20.6l1.13-6h1.15l1.14,6h-1l-.18-1.09H37.19L37,20.6Z"/><polygon class="cls-1" points="40.74 16.84 40.74 20.6 39.89 20.6 39.89 14.62 40.88 14.62 41.96 18.05 41.96 14.62 42.8 14.62 42.8 20.6 41.92 20.6 40.74 16.84"/><rect class="cls-1" x="43.37" y="14.62" width="1.01" height="5.98"/><polygon class="cls-1" points="44.85 14.62 47.52 14.62 47.52 15.44 46.69 15.44 46.69 20.6 45.68 20.6 45.68 15.44 44.85 15.44 44.85 14.62"/><path class="cls-1" d="M48.65,18.71h.8l-.39-2.4h0ZM47.39,20.6l1.13-6h1.14l1.14,6h-1l-.19-1.09H48.52l-.18,1.09Z"/><polygon class="cls-1" points="50.66 14.62 53.33 14.62 53.33 15.44 52.51 15.44 52.51 20.6 51.49 20.6 51.49 15.44 50.66 15.44 50.66 14.62"/><rect class="cls-1" x="53.8" y="14.62" width="1.01" height="5.98"/><path class="cls-1" d="M57.43,19.22V16c0-.37-.16-.62-.52-.62s-.52.25-.52.62v3.21c0,.36.16.61.52.61s.52-.25.52-.61m-2-.16V16.17a1.52,1.52,0,1,1,3,0v2.89a1.52,1.52,0,1,1-3,0"/><polygon class="cls-1" points="59.85 16.84 59.85 20.6 59.01 20.6 59.01 14.62 59.99 14.62 61.08 18.05 61.08 14.62 61.92 14.62 61.92 20.6 61.03 20.6 59.85 16.84"/></svg>