<svg id="Layer_1" data-name="Layer 1" xmlns="http://www.w3.org/2000/svg" viewBox="0 0 71 71"><defs><style>.cls-1{fill:#fff;}</style></defs><title>SDGtest</title><path class="cls-1" d="M36,50.32a5.44,5.44,0,0,1-1.61-10.63v2a3.56,3.56,0,1,0,3.22,0v-2A5.44,5.44,0,0,1,36,50.32m-.77-11.68a.79.79,0,0,1,.78-.73.78.78,0,0,1,.77.73v3.59A.78.78,0,0,1,36,43a.79.79,0,0,1-.78-.72ZM36,34.51A10.46,10.46,0,1,0,46.46,45,10.45,10.45,0,0,0,36,34.51"/><path class="cls-1" d="M24,44.87a.88.88,0,0,0-.8-.86H18.62a.86.86,0,0,0,0,1.72H23.2a.87.87,0,0,0,.8-.86"/><path class="cls-1" d="M54.2,44.87a.88.88,0,0,0-.8-.86H48.82a.86.86,0,0,0,0,1.72H53.4a.87.87,0,0,0,.8-.86"/><path class="cls-1" d="M36,63.07a.88.88,0,0,0,.86-.81V57.69a.86.86,0,0,0-1.72,0v4.57a.87.87,0,0,0,.86.81"/><path class="cls-1" d="M51.8,53.91a.89.89,0,0,0-.27-1.15l-4-2.27A.86.86,0,0,0,46.7,52l4,2.28a.89.89,0,0,0,1.13-.35"/><path class="cls-1" d="M27,60.66a.86.86,0,0,0,1.14-.27l2.28-4a.86.86,0,0,0-1.49-.85l-2.28,4A.87.87,0,0,0,27,60.66"/><path class="cls-1" d="M45.08,60.64a.87.87,0,0,0,.34-1.12l-2.28-4A.88.88,0,0,0,42,55.28a.87.87,0,0,0-.34,1.13l2.28,4a.88.88,0,0,0,1.15.26"/><path class="cls-1" d="M20.24,53.94a.87.87,0,0,0,1.12.35l4-2.28a.87.87,0,0,0-.86-1.5l-4,2.29a.87.87,0,0,0-.26,1.14"/><path class="cls-1" d="M36,32.87a.88.88,0,0,0,.86-.8V27.49a.86.86,0,0,0-1.72,0v4.58a.87.87,0,0,0,.86.8"/><path class="cls-1" d="M25.59,38.91a.87.87,0,0,0-.27-1.14l-4-2.28A.86.86,0,0,0,20.49,37l4,2.28a.89.89,0,0,0,1.13-.35"/><path class="cls-1" d="M42,34.46a.88.88,0,0,0,1.14-.27l2.28-4a.86.86,0,0,0-1.5-.85l-2.27,4A.89.89,0,0,0,42,34.46"/><path class="cls-1" d="M30,34.47a.89.89,0,0,0,.35-1.13l-2.28-4a.88.88,0,0,0-1.15-.27.86.86,0,0,0-.34,1.13l2.28,4a.88.88,0,0,0,1.14.27"/><path class="cls-1" d="M46.41,38.89a.88.88,0,0,0,1.13.34l4-2.28a.87.87,0,0,0,.28-1.15.88.88,0,0,0-1.13-.34l-4,2.28a.88.88,0,0,0-.27,1.15"/><polygon class="cls-1" points="7.63 7.9 11.36 7.9 8.14 20.31 10.54 20.31 13.7 8.15 13.7 5.92 7.63 5.92 7.63 7.9"/><path class="cls-1" d="M21.74,10.05h.8l-.4-2.42h0ZM20.47,12l1.13-6h1.15l1.15,6h-1l-.18-1.1H21.6L21.43,12Z"/><polygon class="cls-1" points="24.32 5.94 26.68 5.94 26.68 6.76 25.33 6.76 25.33 8.48 26.34 8.48 26.34 9.3 25.33 9.3 25.33 11.95 24.32 11.95 24.32 5.94"/><polygon class="cls-1" points="27.13 5.94 29.49 5.94 29.49 6.76 28.14 6.76 28.14 8.48 29.15 8.48 29.15 9.3 28.14 9.3 28.14 11.95 27.13 11.95 27.13 5.94"/><path class="cls-1" d="M31.89,10.56V7.33c0-.36-.15-.62-.52-.62s-.51.26-.51.62v3.23c0,.36.16.62.51.62s.52-.26.52-.62m-2-.16V7.49a1.53,1.53,0,1,1,3.06,0V10.4a1.53,1.53,0,1,1-3.06,0"/><path class="cls-1" d="M34.49,6.77V8.64h.34a.44.44,0,0,0,.5-.5V7.25c0-.33-.15-.48-.5-.48Zm0,2.42V12h-1v-6H35c1,0,1.4.51,1.4,1.35v.77c0,.65-.24,1-.81,1.16l1,2.73H35.44Z"/><path class="cls-1" d="M38.33,11.13c.42,0,.58-.25.58-.61V7.37c0-.36-.16-.61-.58-.61h-.42v4.37Zm1.59-3.58v2.79c0,.92-.38,1.61-1.47,1.61H36.89v-6h1.56c1.09,0,1.47.68,1.47,1.61"/><path class="cls-1" d="M41.47,10.05h.81l-.4-2.42h0ZM40.2,12l1.14-6h1.15l1.14,6h-1l-.18-1.1H41.34L41.16,12Z"/><path class="cls-1" d="M45.06,9.25v1.88h.44a.44.44,0,0,0,.5-.49v-.9c0-.32-.15-.49-.51-.49Zm0-.77h.35A.43.43,0,0,0,45.89,8V7.25a.42.42,0,0,0-.48-.48h-.35Zm-1-2.54h1.46c1,0,1.35.47,1.35,1.32v.61a.88.88,0,0,1-.6,1,.91.91,0,0,1,.75,1v.8c0,.85-.38,1.32-1.39,1.32H44.05Z"/><polygon class="cls-1" points="47.52 5.94 48.53 5.94 48.53 11.13 49.73 11.13 49.73 11.95 47.52 11.95 47.52 5.94"/><polygon class="cls-1" points="50.19 5.94 52.6 5.94 52.6 6.76 51.2 6.76 51.2 8.48 52.2 8.48 52.2 9.3 51.2 9.3 51.2 11.13 52.6 11.13 52.6 11.95 50.19 11.95 50.19 5.94"/><path class="cls-1" d="M55.77,10.05h.81l-.4-2.42h0ZM54.51,12l1.13-6h1.15l1.15,6h-1l-.19-1.1H55.64L55.46,12Z"/><polygon class="cls-1" points="59.2 8.18 59.2 11.95 58.35 11.95 58.35 5.94 59.34 5.94 60.44 9.39 60.44 5.94 61.28 5.94 61.28 11.95 60.39 11.95 59.2 8.18"/><path class="cls-1" d="M63.29,11.13c.42,0,.58-.25.58-.61V7.37c0-.36-.16-.61-.58-.61h-.43v4.37Zm1.59-3.58v2.79c0,.92-.38,1.61-1.47,1.61H61.85v-6h1.56c1.09,0,1.47.68,1.47,1.61"/><path class="cls-1" d="M20.63,18.82V15.91a1.42,1.42,0,0,1,1.51-1.62c1.11,0,1.42.62,1.42,1.51v.71h-.92v-.79c0-.37-.12-.59-.49-.59s-.51.26-.51.62V19c0,.36.15.62.51.62s.49-.23.49-.58V17.91h.92v1c0,.86-.35,1.49-1.42,1.49a1.42,1.42,0,0,1-1.51-1.62"/><polygon class="cls-1" points="24.11 14.36 25.12 14.36 25.12 19.55 26.33 19.55 26.33 20.37 24.11 20.37 24.11 14.36"/><polygon class="cls-1" points="26.79 14.36 29.2 14.36 29.2 15.19 27.8 15.19 27.8 16.91 28.8 16.91 28.8 17.72 27.8 17.72 27.8 19.55 29.2 19.55 29.2 20.37 26.79 20.37 26.79 14.36"/><path class="cls-1" d="M30.85,18.47h.8l-.39-2.41h0Zm-1.27,1.9,1.14-6h1.15l1.14,6H32l-.18-1.1H30.72l-.18,1.1Z"/><polygon class="cls-1" points="34.28 16.6 34.28 20.37 33.43 20.37 33.43 14.36 34.42 14.36 35.51 17.81 35.51 14.36 36.35 14.36 36.35 20.37 35.47 20.37 34.28 16.6"/><polygon class="cls-1" points="38.45 14.36 40.86 14.36 40.86 15.19 39.46 15.19 39.46 16.91 40.46 16.91 40.46 17.72 39.46 17.72 39.46 19.55 40.86 19.55 40.86 20.37 38.45 20.37 38.45 14.36"/><polygon class="cls-1" points="42.25 16.6 42.25 20.37 41.4 20.37 41.4 14.36 42.4 14.36 43.49 17.81 43.49 14.36 44.33 14.36 44.33 20.37 43.44 20.37 42.25 16.6"/><polygon class="cls-1" points="44.9 14.36 47.32 14.36 47.32 15.19 45.92 15.19 45.92 16.91 46.92 16.91 46.92 17.72 45.92 17.72 45.92 19.55 47.32 19.55 47.32 20.37 44.9 20.37 44.9 14.36"/><path class="cls-1" d="M48.87,15.19v1.87h.33a.44.44,0,0,0,.5-.5v-.89c0-.32-.15-.48-.5-.48Zm0,2.43v2.75h-1v-6h1.47c1,0,1.39.51,1.39,1.35v.77c0,.65-.23,1-.81,1.16l1,2.73H49.82Z"/><path class="cls-1" d="M52.79,17.16h1.44v3.21H53.5v-.65a.9.9,0,0,1-1,.72c-.87,0-1.27-.69-1.27-1.62V15.91a1.42,1.42,0,0,1,1.51-1.62c1.12,0,1.45.62,1.45,1.51v.53h-.92v-.61c0-.37-.14-.59-.51-.59s-.52.26-.52.62V19c0,.37.15.62.5.62s.49-.18.49-.57V18h-.48Z"/><polygon class="cls-1" points="56.55 18.09 56.55 20.37 55.54 20.37 55.54 18.09 54.42 14.36 55.47 14.36 56.08 16.64 56.09 16.64 56.7 14.36 57.67 14.36 56.55 18.09"/></svg>