<svg id="Layer_1" data-name="Layer 1" xmlns="http://www.w3.org/2000/svg" viewBox="0 0 71 71"><defs><style>.cls-1{fill:#fff;}</style></defs><title>SDGtest</title><path class="cls-1" d="M48.77,35l-7.25,6.9a1.18,1.18,0,0,0-.42,1V62.3a.42.42,0,0,0,.42.42H49a.42.42,0,0,0,.42-.42V35.22c0-.23-.18-.65-.65-.18"/><path class="cls-1" d="M27.88,44l-7.25,6.89a1.21,1.21,0,0,0-.42,1V62.31a.42.42,0,0,0,.42.41h7.49a.41.41,0,0,0,.41-.41V44.2c0-.23-.18-.65-.65-.17"/><path class="cls-1" d="M52.06,26.68a.23.23,0,0,0-.06-.16.25.25,0,0,0-.13-.06h-.1l-5.56,1.25h-.1a.21.21,0,0,0-.1.06.2.2,0,0,0,0,.3l.06.06,1.27,1.27L34.76,42,29,36.19a.16.16,0,0,0-.24,0l-1.58,1.57h0l-9.31,9.32a.15.15,0,0,0,0,.23l1.58,1.58a.15.15,0,0,0,.23,0l9.2-9.19,4.22,4.21s0,0,0,0l1.58,1.58a.17.17,0,0,0,.23,0L49.15,31.23l1.33,1.33a.22.22,0,0,0,.3,0,.2.2,0,0,0,.06-.14h0l1.22-5.67Z"/><path class="cls-1" d="M38.36,45.24l-3.51,3.53a.16.16,0,0,1-.22,0l-3.18-3.24c-.58-.58-.71-.11-.71.12V62.3a.42.42,0,0,0,.41.42h7.5a.42.42,0,0,0,.41-.42V45.37c0-.23-.18-.65-.7-.13"/><path class="cls-1" d="M11,17c0,.87-.32,1.49-1.19,1.49S8.65,17.91,8.65,17V14.71c0-.87.32-1.48,1.17-1.48S11,13.84,11,14.71ZM8.74,9.09c0-.87.29-1.38,1.08-1.38s1.1.51,1.1,1.38v1c0,.86-.3,1.37-1.1,1.37s-1.08-.51-1.08-1.37Zm4.69,7.7V15.22a2.85,2.85,0,0,0-1.62-2.89,2.51,2.51,0,0,0,1.4-2.5V9.24c0-2.25-1.16-3.46-3.39-3.46S6.47,7,6.47,9.24v.59a2.54,2.54,0,0,0,1.35,2.5,2.85,2.85,0,0,0-1.59,2.89v1.57c0,2.18,1,3.71,3.59,3.71s3.61-1.53,3.61-3.71"/><path class="cls-1" d="M20,11.13c.42,0,.58-.25.58-.61V7.37c0-.36-.16-.61-.58-.61h-.42v4.37Zm1.59-3.58v2.79c0,.92-.38,1.61-1.46,1.61H18.61v-6h1.56c1.08,0,1.46.68,1.46,1.61"/><polygon class="cls-1" points="22.2 5.94 24.62 5.94 24.62 6.76 23.22 6.76 23.22 8.48 24.22 8.48 24.22 9.3 23.22 9.3 23.22 11.13 24.62 11.13 24.62 11.95 22.2 11.95 22.2 5.94"/><path class="cls-1" d="M25.07,10.4V7.49a1.42,1.42,0,0,1,1.51-1.62c1.11,0,1.42.62,1.42,1.51v.71h-.92V7.3c0-.38-.12-.59-.49-.59s-.51.26-.51.62v3.23c0,.36.15.62.51.62s.49-.23.49-.58V9.49H28v1c0,.85-.35,1.49-1.42,1.49a1.42,1.42,0,0,1-1.51-1.62"/><polygon class="cls-1" points="28.55 5.94 30.96 5.94 30.96 6.76 29.56 6.76 29.56 8.48 30.57 8.48 30.57 9.3 29.56 9.3 29.56 11.13 30.96 11.13 30.96 11.95 28.55 11.95 28.55 5.94"/><polygon class="cls-1" points="32.36 8.18 32.36 11.95 31.5 11.95 31.5 5.94 32.5 5.94 33.59 9.39 33.59 5.94 34.43 5.94 34.43 11.95 33.55 11.95 32.36 8.18"/><polygon class="cls-1" points="34.89 5.94 37.58 5.94 37.58 6.76 36.74 6.76 36.74 11.95 35.72 11.95 35.72 6.76 34.89 6.76 34.89 5.94"/><polygon class="cls-1" points="41.75 8.24 41.18 11.95 40.23 11.95 39.42 5.94 40.4 5.94 40.87 9.75 40.88 9.75 41.38 5.94 42.21 5.94 42.77 9.75 42.78 9.75 43.24 5.94 44.09 5.94 43.31 11.95 42.35 11.95 41.76 8.24 41.75 8.24"/><path class="cls-1" d="M46.48,10.56V7.33c0-.36-.16-.62-.52-.62s-.51.26-.51.62v3.23c0,.36.15.62.51.62s.52-.26.52-.62m-2-.16V7.49a1.53,1.53,0,1,1,3.06,0V10.4a1.53,1.53,0,1,1-3.06,0"/><path class="cls-1" d="M49.08,6.77V8.64h.34a.44.44,0,0,0,.49-.5V7.25c0-.33-.15-.48-.49-.48Zm0,2.42V12h-1v-6h1.47c1,0,1.39.51,1.39,1.35v.77c0,.65-.23,1-.8,1.16l1,2.73H50Z"/><polygon class="cls-1" points="52.49 9.03 52.49 11.95 51.48 11.95 51.48 5.94 52.49 5.94 52.49 8.58 53.59 5.94 54.59 5.94 53.41 8.64 54.61 11.95 53.55 11.95 52.49 9.03"/><path class="cls-1" d="M57.62,10.05h.81L58,7.63h0ZM56.35,12l1.14-6h1.15l1.15,6h-1l-.19-1.1H57.49L57.31,12Z"/><polygon class="cls-1" points="61.05 8.18 61.05 11.95 60.2 11.95 60.2 5.94 61.2 5.94 62.28 9.39 62.28 5.94 63.13 5.94 63.13 11.95 62.24 11.95 61.05 8.18"/><path class="cls-1" d="M65.14,11.13c.42,0,.58-.25.58-.61V7.37c0-.36-.16-.61-.58-.61h-.43v4.37Zm1.59-3.58v2.79c0,.92-.38,1.61-1.47,1.61H63.7v-6h1.56c1.09,0,1.47.68,1.47,1.61"/><polygon class="cls-1" points="18.61 14.36 21.02 14.36 21.02 15.19 19.62 15.19 19.62 16.91 20.62 16.91 20.62 17.72 19.62 17.72 19.62 19.55 21.02 19.55 21.02 20.37 18.61 20.37 18.61 14.36"/><path class="cls-1" d="M21.47,18.82V15.91A1.42,1.42,0,0,1,23,14.29c1.11,0,1.42.62,1.42,1.51v.71h-.92v-.79c0-.37-.12-.59-.49-.59s-.51.26-.51.62V19c0,.36.15.62.51.62s.49-.23.49-.58V17.91h.92v1c0,.86-.35,1.49-1.42,1.49a1.42,1.42,0,0,1-1.51-1.62"/><path class="cls-1" d="M27,19V15.75c0-.36-.16-.62-.52-.62s-.52.26-.52.62V19c0,.36.16.62.52.62S27,19.34,27,19M25,18.82V15.91a1.53,1.53,0,1,1,3.06,0v2.91a1.53,1.53,0,1,1-3.06,0"/><polygon class="cls-1" points="29.44 16.6 29.44 20.37 28.59 20.37 28.59 14.36 29.58 14.36 30.67 17.81 30.67 14.36 31.52 14.36 31.52 20.37 30.63 20.37 29.44 16.6"/><path class="cls-1" d="M34.14,19V15.75c0-.36-.16-.62-.53-.62s-.51.26-.51.62V19c0,.36.16.62.51.62s.53-.26.53-.62m-2-.16V15.91a1.53,1.53,0,1,1,3.06,0v2.91a1.53,1.53,0,1,1-3.06,0"/><polygon class="cls-1" points="38.51 16.47 38.48 16.47 37.8 20.37 37.33 20.37 36.58 16.47 36.56 16.47 36.56 20.37 35.72 20.37 35.72 14.36 36.9 14.36 37.56 17.75 37.57 17.75 38.15 14.36 39.43 14.36 39.43 20.37 38.51 20.37 38.51 16.47"/><rect class="cls-1" x="40.01" y="14.36" width="1.01" height="6.01"/><path class="cls-1" d="M41.6,18.82V15.91a1.42,1.42,0,0,1,1.51-1.62c1.12,0,1.43.62,1.43,1.51v.71h-.93v-.79c0-.37-.12-.59-.48-.59s-.52.26-.52.62V19c0,.36.15.62.52.62s.48-.23.48-.58V17.91h.93v1c0,.86-.36,1.49-1.43,1.49a1.42,1.42,0,0,1-1.51-1.62"/><path class="cls-1" d="M48.13,17.16h1.44v3.21h-.73v-.65a.91.91,0,0,1-1,.72c-.86,0-1.26-.69-1.26-1.62V15.91a1.42,1.42,0,0,1,1.51-1.62c1.12,0,1.45.62,1.45,1.51v.53h-.92v-.61c0-.37-.14-.59-.51-.59s-.52.26-.52.62V19c0,.37.15.62.49.62s.5-.18.5-.57V18h-.48Z"/><path class="cls-1" d="M51.15,15.19v1.87h.34a.44.44,0,0,0,.5-.5v-.89c0-.32-.15-.48-.5-.48Zm0,2.43v2.75h-1v-6h1.48c1,0,1.39.51,1.39,1.35v.77c0,.65-.23,1-.81,1.16l1,2.73H52.1Z"/><path class="cls-1" d="M55.6,19V15.75c0-.36-.15-.62-.52-.62s-.51.26-.51.62V19c0,.36.16.62.51.62s.52-.26.52-.62m-2-.16V15.91a1.53,1.53,0,1,1,3.06,0v2.91a1.53,1.53,0,1,1-3.06,0"/><polygon class="cls-1" points="59.28 16.66 58.72 20.37 57.77 20.37 56.96 14.36 57.94 14.36 58.41 18.17 58.41 18.17 58.92 14.36 59.75 14.36 60.3 18.17 60.31 18.17 60.77 14.36 61.63 14.36 60.84 20.37 59.89 20.37 59.29 16.66 59.28 16.66"/><polygon class="cls-1" points="61.94 14.36 64.63 14.36 64.63 15.19 63.8 15.19 63.8 20.37 62.78 20.37 62.78 15.19 61.94 15.19 61.94 14.36"/><polygon class="cls-1" points="67.08 17.72 66.11 17.72 66.11 20.37 65.1 20.37 65.1 14.36 66.11 14.36 66.11 16.91 67.08 16.91 67.08 14.36 68.1 14.36 68.1 20.37 67.08 20.37 67.08 17.72"/></svg>