<svg id="Layer_1" data-name="Layer 1" xmlns="http://www.w3.org/2000/svg" viewBox="0 0 71 71"><defs><style>.cls-1{fill:#fff;}</style></defs><title>SDGtest</title><path class="cls-1" d="M51.84,57.13l-7.61,4.39V52.73l7.61-4.39ZM26.69,61.52V53.4l7,4.06Zm-1.15,0-7.61-4.39V48.34l7.61,4.39Zm8.18-24.31-7,4.06V33.15Zm9.35,4.06-7-4.06,7-4.06Zm-7,6.06,7.61-4.39,7.61,4.39-7.61,4.4Zm-1.74-1-7-4.06,7-4.06Zm8.19-4.06-7,4.06V38.21ZM34.3,56.46l-7-4.06,7-4.06Zm18.41-9.63-8.48-4.89V32.15a.57.57,0,0,0-.29-.5l-8.77-5.06a.55.55,0,0,0-.58,0l-8.77,5.06a.58.58,0,0,0-.28.5v9.79l-8.48,4.89a.59.59,0,0,0-.29.5V57.46a.57.57,0,0,0,.29.5L25.82,63a.63.63,0,0,0,.29.08A.6.6,0,0,0,26.4,63l8.48-4.89L43.36,63a.57.57,0,0,0,.58,0L52.71,58a.58.58,0,0,0,.28-.5V47.33a.61.61,0,0,0-.28-.5"/><path class="cls-1" d="M9.49,11.75c-.05.81-.38,1.31-1.15,1.31s-1.14-.5-1.14-1.44V9.12c0-.91.34-1.44,1.16-1.44s1.13.55,1.13,1.44Zm2.39-2.2c0-2.23-1-3.84-3.52-3.84S4.8,7.11,4.8,9.33v2.12c0,2.36.93,3.54,2.67,3.54a2.07,2.07,0,0,0,2-1.16h0v3.09c0,.87-.34,1.49-1.21,1.49S7.09,17.9,7.09,17v-1H4.89v.77c0,2.12.76,3.6,3.43,3.6s3.56-1.63,3.56-3.88Z"/><rect class="cls-1" x="16.01" y="5.94" width="1.01" height="6.01"/><polygon class="cls-1" points="18.2 8.18 18.2 11.95 17.35 11.95 17.35 5.94 18.35 5.94 19.44 9.39 19.44 5.94 20.28 5.94 20.28 11.95 19.39 11.95 18.2 8.18"/><path class="cls-1" d="M22,11.13c.42,0,.58-.25.58-.61V7.37c0-.36-.16-.61-.58-.61h-.42v4.37Zm1.59-3.58v2.79c0,.92-.38,1.61-1.46,1.61H20.6v-6h1.56c1.08,0,1.46.68,1.46,1.61"/><path class="cls-1" d="M26.87,5.94v4.55c0,.93-.39,1.53-1.42,1.53a1.35,1.35,0,0,1-1.51-1.53V5.94h1v4.65c0,.35.14.59.5.59s.49-.24.49-.59V5.94Z"/><path class="cls-1" d="M27.14,10.66V9.85h.94v.82c0,.34.15.54.5.54S29,11,29,10.67v-.23a1.11,1.11,0,0,0-.46-.85L28,9a2,2,0,0,1-.84-1.61v-.2a1.25,1.25,0,0,1,1.42-1.32c1,0,1.41.5,1.41,1.37v.48h-.93V7.2c0-.35-.16-.51-.47-.51a.44.44,0,0,0-.48.49v.13c0,.33.18.53.48.81l.64.64A2,2,0,0,1,30,10.32v.29A1.3,1.3,0,0,1,28.57,12a1.25,1.25,0,0,1-1.43-1.36"/><polygon class="cls-1" points="30.07 5.94 32.75 5.94 32.75 6.76 31.92 6.76 31.92 11.95 30.9 11.95 30.9 6.76 30.07 6.76 30.07 5.94"/><path class="cls-1" d="M34,6.77V8.64h.34a.44.44,0,0,0,.5-.5V7.25c0-.33-.15-.48-.5-.48Zm0,2.42V12H33v-6h1.48c1,0,1.39.51,1.39,1.35v.77c0,.65-.23,1-.81,1.16L36,12H34.92Z"/><polygon class="cls-1" points="37.95 9.66 37.95 11.95 36.94 11.95 36.94 9.66 35.82 5.94 36.87 5.94 37.48 8.22 37.49 8.22 38.11 5.94 39.07 5.94 37.95 9.66"/><polygon class="cls-1" points="38.73 10.99 38.6 12.42 39.17 12.42 39.68 11.07 39.68 10.99 38.73 10.99"/><rect class="cls-1" x="40.68" y="5.94" width="1.01" height="6.01"/><polygon class="cls-1" points="42.87 8.18 42.87 11.95 42.02 11.95 42.02 5.94 43.01 5.94 44.1 9.39 44.1 5.94 44.94 5.94 44.94 11.95 44.05 11.95 42.87 8.18"/><polygon class="cls-1" points="46.11 8.18 46.11 11.95 45.26 11.95 45.26 5.94 46.25 5.94 47.34 9.39 47.34 5.94 48.19 5.94 48.19 11.95 47.3 11.95 46.11 8.18"/><path class="cls-1" d="M50.55,10.56V7.33c0-.36-.16-.62-.52-.62s-.51.26-.51.62v3.23c0,.36.15.62.51.62s.52-.26.52-.62m-2-.16V7.49a1.53,1.53,0,1,1,3.06,0V10.4a1.53,1.53,0,1,1-3.06,0"/><polygon class="cls-1" points="54.94 5.94 53.8 11.95 52.7 11.95 51.55 5.94 52.58 5.94 53.27 10.13 53.28 10.13 53.99 5.94 54.94 5.94"/><path class="cls-1" d="M55.68,10.05h.8l-.4-2.42h0ZM54.41,12l1.13-6H56.7l1.14,6h-1l-.18-1.1H55.54L55.37,12Z"/><polygon class="cls-1" points="57.44 5.94 60.13 5.94 60.13 6.76 59.29 6.76 59.29 11.95 58.27 11.95 58.27 6.76 57.44 6.76 57.44 5.94"/><rect class="cls-1" x="60.34" y="5.94" width="1.01" height="6.01"/><path class="cls-1" d="M63.73,10.56V7.33c0-.36-.16-.62-.53-.62s-.51.26-.51.62v3.23c0,.36.16.62.51.62s.53-.26.53-.62m-2-.16V7.49a1.53,1.53,0,1,1,3.06,0V10.4a1.53,1.53,0,1,1-3.06,0"/><polygon class="cls-1" points="65.91 8.18 65.91 11.95 65.06 11.95 65.06 5.94 66.05 5.94 67.14 9.39 67.14 5.94 67.98 5.94 67.98 11.95 67.09 11.95 65.91 8.18"/><path class="cls-1" d="M17.12,18.47h.81l-.4-2.41h0Zm-1.27,1.9,1.14-6h1.15l1.15,6h-1l-.19-1.1H17l-.18,1.1Z"/><polygon class="cls-1" points="20.3 16.6 20.3 20.37 19.45 20.37 19.45 14.36 20.44 14.36 21.53 17.81 21.53 14.36 22.37 14.36 22.37 20.37 21.48 20.37 20.3 16.6"/><path class="cls-1" d="M24.13,19.55c.41,0,.57-.25.57-.61V15.79a.52.52,0,0,0-.57-.6H23.7v4.36ZM25.71,16v2.78c0,.92-.38,1.61-1.46,1.61H22.69v-6h1.56c1.08,0,1.46.68,1.46,1.62"/><rect class="cls-1" x="27.29" y="14.36" width="1.01" height="6.01"/><polygon class="cls-1" points="29.48 16.6 29.48 20.37 28.63 20.37 28.63 14.36 29.63 14.36 30.72 17.81 30.72 14.36 31.56 14.36 31.56 20.37 30.67 20.37 29.48 16.6"/><polygon class="cls-1" points="31.88 14.36 34.24 14.36 34.24 15.19 32.89 15.19 32.89 16.91 33.9 16.91 33.9 17.72 32.89 17.72 32.89 20.38 31.88 20.38 31.88 14.36"/><path class="cls-1" d="M35.44,15.19v1.87h.34c.35,0,.49-.18.49-.5v-.89c0-.32-.14-.48-.49-.48Zm0,2.43v2.75h-1v-6H35.9c1,0,1.4.51,1.4,1.35v.77c0,.65-.24,1-.81,1.16l1,2.73H36.39Z"/><path class="cls-1" d="M38.7,18.47h.8l-.4-2.41h0Zm-1.27,1.9,1.13-6h1.15l1.15,6h-1l-.18-1.1H38.56l-.17,1.1Z"/><path class="cls-1" d="M40.88,19.08v-.81h.94v.83c0,.33.15.53.49.53s.46-.21.46-.53v-.23a1.07,1.07,0,0,0-.45-.85l-.59-.6a2,2,0,0,1-.84-1.6v-.21a1.25,1.25,0,0,1,1.41-1.32c1,0,1.41.5,1.41,1.37v.48h-.92v-.52c0-.35-.16-.51-.48-.51a.44.44,0,0,0-.48.49v.13c0,.33.19.53.48.81l.65.64a2,2,0,0,1,.82,1.56V19a1.31,1.31,0,0,1-1.48,1.41,1.25,1.25,0,0,1-1.42-1.36"/><polygon class="cls-1" points="43.8 14.36 46.49 14.36 46.49 15.19 45.66 15.19 45.66 20.38 44.63 20.38 44.63 15.19 43.8 15.19 43.8 14.36"/><path class="cls-1" d="M47.71,15.19v1.87h.34a.44.44,0,0,0,.49-.5v-.89c0-.32-.15-.48-.49-.48Zm0,2.43v2.75h-1v-6h1.47c1,0,1.4.51,1.4,1.35v.77c0,.65-.24,1-.81,1.16l1,2.73H48.66Z"/><path class="cls-1" d="M52.79,14.36v4.55c0,.93-.4,1.54-1.43,1.54a1.36,1.36,0,0,1-1.5-1.54V14.36h1V19c0,.35.14.59.49.59s.5-.24.5-.59V14.36Z"/><path class="cls-1" d="M53.11,18.82V15.91a1.42,1.42,0,0,1,1.51-1.62c1.11,0,1.42.62,1.42,1.51v.71h-.92v-.79c0-.37-.12-.59-.49-.59s-.51.26-.51.62V19c0,.36.15.62.51.62s.49-.23.49-.58V17.91H56v1c0,.86-.35,1.49-1.42,1.49a1.42,1.42,0,0,1-1.51-1.62"/><polygon class="cls-1" points="56.13 14.36 58.82 14.36 58.82 15.19 57.99 15.19 57.99 20.38 56.97 20.38 56.97 15.19 56.13 15.19 56.13 14.36"/><path class="cls-1" d="M62,14.36v4.55c0,.93-.4,1.54-1.43,1.54A1.36,1.36,0,0,1,59,18.91V14.36h1V19c0,.35.14.59.5.59s.5-.24.5-.59V14.36Z"/><path class="cls-1" d="M63.3,15.19v1.87h.33a.44.44,0,0,0,.5-.5v-.89c0-.32-.15-.48-.5-.48Zm0,2.43v2.75h-1v-6h1.48c1,0,1.39.51,1.39,1.35v.77c0,.65-.23,1-.81,1.16l1,2.73H64.24Z"/><polygon class="cls-1" points="65.44 14.36 67.85 14.36 67.85 15.19 66.45 15.19 66.45 16.91 67.45 16.91 67.45 17.72 66.45 17.72 66.45 19.55 67.85 19.55 67.85 20.38 65.44 20.38 65.44 14.36"/></svg>