<svg id="Layer_1" data-name="Layer 1" xmlns="http://www.w3.org/2000/svg" viewBox="0 0 810.22 567.7"><defs><style>.cls-1{fill:none;stroke:#cccbca;stroke-miterlimit:10;}</style></defs><title>SDGtest</title><polygon class="cls-1" points="550.36 98.21 599.78 143.4 629.44 116.28 629.44 165.98 649.22 184.05 629.44 202.12 629.44 251.82 589.91 287.97 589.89 310.56 431.73 310.56 377.37 360.26 377.37 310.56 332.89 269.9 416.91 269.9 416.91 220.19 550.36 98.21"/><polygon class="cls-1" points="268.63 84.66 234.03 84.66 234.03 274.41 115.4 274.41 130.23 287.97 130.23 328.64 159.88 328.64 209.31 373.82 219.2 373.82 332.89 269.9 416.91 269.9 416.91 220.19 268.63 84.66"/><polygon class="cls-1" points="56.09 256.34 95.63 256.34 130.23 287.97 130.23 328.64 46.2 328.64 45.2 310.56 95.63 310.56 95.63 297.01 41.26 297.01 26.44 283.45 56.09 256.34"/><polygon class="cls-1" points="41.26 297.01 46.21 301.53 45.2 310.56 95.63 310.56 95.63 297.01 41.26 297.01"/><polygon class="cls-1" points="105.52 327.83 159.88 328.64 205.13 370 204.37 414.47 179.66 437.08 125.29 387.37 90.69 419 90.69 383.55 61.04 355.75 105.52 355.75 105.52 327.83"/><polygon class="cls-1" points="629.44 116.28 654.16 93.69 782.66 211.16 782.65 265.38 753.01 292.49 753.01 351.23 777.72 373.82 743.13 373.82 713.47 400.92 688.76 400.92 688.76 428.04 629.44 428.04 608.87 409.17 608.87 387.37 624.5 387.37 624.5 344.22 589.89 310.56 589.91 287.97 629.44 251.82 629.44 202.12 649.22 184.05 629.44 165.98 629.44 116.28"/><polygon class="cls-1" points="624.5 341.09 624.5 387.37 608.87 387.37 608.87 409.17 629.44 428.04 614.62 441.6 614.62 500.32 644.27 527.45 644.27 536.48 515.76 536.48 515.76 495.8 505.93 495.56 505.93 455.2 562.98 402.98 570.14 407.71 588.02 392.25 587.92 375.63 624.5 341.09"/><polygon class="cls-1" points="624.5 341.09 589.89 310.56 431.73 310.56 421.85 319.6 421.86 369.3 397.14 391.9 397.14 455.15 411.97 455.15 456.44 495.8 505.93 495.56 505.93 455.2 562.98 402.98 570.14 407.71 588.02 392.25 587.92 375.63 624.5 341.09"/><polygon class="cls-1" points="332.89 269.9 377.37 310.56 377.37 360.26 283.45 360.26 283.45 396.41 258.74 373.82 219.2 373.82 332.89 269.9"/><polygon class="cls-1" points="199.43 21.39 268.63 84.66 234.03 84.66 234.03 274.41 115.4 274.41 95.63 256.34 56.09 256.34 56.09 152.42 115.01 151.84 115.4 107.25 140.03 107.25 140.12 57.54 199.44 57.01 199.43 21.39"/></svg>